<?xml version="1.0" standalone="no"?>
<!DOCTYPE svg PUBLIC "-//W3C//DTD SVG 1.1//EN" "http://www.w3.org/Graphics/SVG/1.1/DTD/svg11.dtd" >
<svg xmlns="http://www.w3.org/2000/svg">
<metadata>Generated by IcoMoon</metadata>
<defs>
<font id="icomoon" horiz-adv-x="1024">
<font-face units-per-em="1024" ascent="960" descent="-64" />
<missing-glyph horiz-adv-x="1024" />
<glyph unicode="&#x20;" horiz-adv-x="512" d="" />
<glyph unicode="&#xe900;" glyph-name="discover" horiz-adv-x="1350" d="M768.165 796.521c79.446-22.016 149.232-67.398 201.789-131.258 15.325-18.618 12.599-46.080-6.064-61.347-8.156-6.656-17.981-9.891-27.736-9.891-12.646 0-25.197 5.446-33.847 15.942-41.086 49.897-95.594 85.364-157.6 102.563-23.27 6.447-36.903 30.487-30.415 53.667 6.464 23.203 30.58 36.771 53.873 30.324zM572.976 801.452c28.652 6.4 58.151 9.635 87.673 9.635 24.163 0 43.766-19.503 43.766-43.59s-19.603-43.59-43.766-43.59c-23.105 0-46.163-2.537-68.54-7.54-3.22-0.721-6.44-1.047-9.613-1.047-20.026 0-38.101 13.777-42.661 34.071-5.265 23.482 9.566 46.778 33.142 52.061zM209.002 315.252c-20.567 0-38.9 14.499-42.92 35.375-6.182 32.070-9.308 64.815-9.308 97.35 0 69.097 13.586 136.169 40.405 199.308 25.879 60.975 62.946 115.735 110.12 162.746 47.198 47.011 102.152 83.921 163.335 109.708 63.392 26.717 130.687 40.262 200.026 40.262 113.505 0 221.086-36.143 311.156-104.495 43.296-32.861 80.927-72.122 111.859-116.713 31.402-45.265 55.119-94.883 70.491-147.526 6.746-23.133-6.581-47.313-29.781-54.039s-47.48 6.54-54.249 29.673c-52.604 180.108-220.992 305.897-409.477 305.897-235.095 0-426.377-190.557-426.377-424.82 0-27.020 2.586-54.249 7.733-80.896 4.56-23.645-10.977-46.499-34.717-51.037-2.774-0.535-5.571-0.791-8.297-0.791zM1347.609 602.445c8.579-36.748-7.804-74.473-48.725-112.105-27.266-25.065-66.072-50.828-115.503-76.753-8.485-127.837-64.215-246.714-157.6-335.686-96.041-91.508-222.167-141.917-355.11-141.917-92.914 0-183.972 24.995-263.324 72.239-75.85 45.196-139.031 109.359-182.914 185.74-51.899 1.932-95.171 7.889-128.83 17.873-53.379 15.802-84.805 42.449-93.385 79.22-9.308 39.75 10.695 80.663 59.467 121.507 18.498 15.5 46.093 13.126 61.653-5.306 15.537-18.432 13.163-45.94-5.336-61.417-23.129-19.386-28.746-31.139-30.039-34.932 2.985-2.979 14.103-11.753 46.916-19.223 34.223-7.82 81.679-11.683 137.244-11.194 119.733 1.071 271.739 21.597 428.069 57.763 156.354 36.189 301.895 84.55 409.853 136.169 50.089 23.971 90.964 48.291 118.229 70.33 26.161 21.155 32.249 33.908 33.612 37.865-2.515 2.513-10.836 9.146-33.283 15.709-23.199 6.796-36.456 31.023-29.663 54.132 6.816 23.11 31.144 36.329 54.32 29.533 54.014-15.802 85.745-42.566 94.348-79.546zM670.672 23.187c208.276 0 382.352 148.177 419.184 346.577-104.831-44.288-233.003-84.759-369.848-116.433-140.206-32.442-276.369-52.596-391.848-58.345 79.869-107.124 206.748-171.799 342.512-171.799z" />
<glyph unicode="&#xe901;" glyph-name="discover-active" horiz-adv-x="1350" d="M1164.161 591.274l-23.798-38.547c-186.182-162.909-931.366-237.468-931.366-237.468-20.567 0-38.9 14.499-42.92 35.375-6.182 32.070-9.308 64.815-9.308 97.35 0 69.097 13.586 136.169 40.405 199.308 25.879 60.975 62.946 115.735 110.12 162.746 47.198 47.011 102.152 83.921 163.335 109.708 63.392 26.717 130.687 40.262 200.026 40.262 113.505 0 221.086-36.143 311.156-104.495 43.296-32.861 80.927-72.122 111.859-116.713 31.402-45.265 55.119-94.883 70.491-147.526zM1347.605 602.452c8.579-36.748-7.804-74.473-48.725-112.105-27.266-25.065-66.072-50.828-115.503-76.753-8.485-127.837-64.215-246.714-157.6-335.686-96.041-91.508-222.167-141.917-355.11-141.917-92.914 0-183.972 24.995-263.324 72.239-75.85 45.196-139.031 109.359-182.914 185.74-51.899 1.932-95.171 7.889-128.83 17.873-53.379 15.802-84.805 42.449-93.385 79.22-9.308 39.75 10.695 80.663 59.467 121.507 18.498 15.5 46.093 13.126 61.653-5.306 15.537-18.432 13.163-45.94-5.336-61.417-23.129-19.386-28.746-31.139-30.039-34.932 2.985-2.979 14.103-11.753 46.916-19.223 34.223-7.82 81.679-11.683 137.244-11.194 119.733 1.071 271.739 21.597 428.069 57.763 156.354 36.189 301.895 84.55 409.853 136.169 50.089 23.971 90.964 48.291 118.229 70.33 26.161 21.155 32.249 33.908 33.612 37.865-2.515 2.513-10.836 9.146-33.283 15.709-23.199 6.796-36.456 31.023-29.663 54.132 6.816 23.11 31.144 36.329 54.32 29.533 54.014-15.802 85.745-42.566 94.348-79.546zM768.16 796.528c-23.293 6.447-47.409-7.121-53.873-30.324-6.487-23.18 7.145-47.22 30.415-53.667 62.006-17.199 116.513-52.666 157.6-102.563 8.65-10.496 21.201-15.942 33.847-15.942 9.754 0 19.579 3.235 27.736 9.891 18.663 15.267 21.389 42.729 6.064 61.347-52.557 63.86-122.342 109.242-201.789 131.258zM572.971 801.459c-23.575-5.283-38.407-28.579-33.142-52.061 4.56-20.294 22.635-34.071 42.661-34.071 3.173 0 6.393 0.326 9.613 1.047 22.377 5.004 45.435 7.54 68.54 7.54 24.163 0 43.766 19.503 43.766 43.59s-19.603 43.59-43.766 43.59c-29.522 0-59.021-3.235-87.673-9.635z" />
<glyph unicode="&#xe902;" glyph-name="invest" d="M874.202 810.392c199.856-200.154 199.713-524.523-0.322-724.503-200.040-199.98-524.218-199.831-724.079 0.323-199.733 200.031-199.733 524.155 0 724.18 200.317 199.478 524.080 199.478 724.402 0zM198.856 135.31c172.808-172.672 452.966-172.653 625.75 0.039s172.764 452.667-0.039 625.34c-172.794 172.658-452.917 172.658-625.71 0-172.051-173.004-172.051-452.374 0-625.379zM514.056 168.727l-281.328 280.562 281.328 277.983 277.217-277.983-277.217-280.562zM512 634.182l-186.182-186.182 186.182-186.182 186.182 186.182-186.182 186.182z" />
<glyph unicode="&#xe903;" glyph-name="invest-active" d="M874.202 810.392c199.856-200.154 199.713-524.523-0.322-724.503-200.040-199.98-524.218-199.831-724.079 0.323-199.733 200.031-199.733 524.155 0 724.18 200.317 199.478 524.080 199.478 724.402 0zM514.056 168.727l277.217 280.562-277.217 277.983-281.328-277.983 281.328-280.562z" />
<glyph unicode="&#xe904;" glyph-name="funnel01" d="M1023.283 450.66v23.559c0.444-8.806 0.683-17.647 0.683-26.555 0-282.105-229.649-511.647-512-511.647-282.487 0-512 229.405-511.966 511.715 0.034 282.236 229.913 511.808 512.393 511.578l12.561 0.007c20.173 0 36.557-16.349 36.557-36.522s-16.384-36.522-36.557-36.522h-12.544v-0.041h-0.444c-241.971 0-438.818-196.74-438.818-438.569 0-241.556 197.154-438.569 438.886-438.535 241.971 0.034 438.784 196.74 438.784 438.535v1.106h-0.020v0.887c0 20.002 16.247 36.215 36.25 36.215 19.667 0 35.704-15.674 36.236-35.211zM889.279 824.733h134.687v-35.682c0.009-0.336 0.014-0.673 0.014-1.011s-0.005-0.675-0.014-1.011v-35.682h-134.687v-97.227c0-20.275-16.452-36.692-36.727-36.692-20.241 0-36.693 16.418-36.693 36.692v97.227h-134.68v73.385h134.68v98.592c0 20.241 16.452 36.692 36.693 36.692 20.275 0 36.727-16.452 36.727-36.692v-98.592zM622.701 451.753h-83.285v-59.391h83.285c15.189 0 27.443-13.243 27.443-29.661s-12.254-29.695-27.443-29.695h-83.285v-88.267c0-16.418-12.288-29.661-27.443-29.661s-27.443 13.243-27.443 29.661v88.267h-81.306c-15.155 0-27.443 13.278-27.443 29.695s12.288 29.661 27.443 29.661h81.306v59.391h-81.306c-15.155 0-27.443 13.312-27.443 29.695s12.288 29.661 27.443 29.661h81.306v5.529l-101.478 110.043c-10.718 11.571-10.206 30.378 0.512 41.983 10.684 11.605 28.058 11.673 38.81 0.068l92.262-99.599 87.142 99.053c10.513 11.912 27.75 12.322 38.673 1.024 10.991-11.298 11.162-30.071 0.683-41.949l-101.717-114.924v-1.229h83.285c15.189 0 27.443-13.278 27.443-29.661s-12.254-29.695-27.443-29.695z" />
<glyph unicode="&#xe905;" glyph-name="homepage-active" horiz-adv-x="1164" d="M1149.554 489.764l-541.456 460.597c-15.133 12.851-37.414 12.851-52.548 0l-541.456-460.597c-12.821-10.903-17.446-28.581-11.586-44.306s20.964-26.153 37.863-26.153h161.424v-443.254c0-22.112 18.075-40.051 40.356-40.051h215.241c22.275 0 40.356 17.939 40.356 40.051v199.607h188.33v-199.607c0-22.112 18.081-40.051 40.356-40.051h215.241c22.275 0 40.356 17.939 40.356 40.051v444.543h133.731c13.718-1.879 28.397 3.746 38.154 15.002 14.499 16.794 12.559 39.773-4.363 54.168v0z" />
<glyph unicode="&#xe906;" glyph-name="profile" horiz-adv-x="977" d="M908.507 5.818c-5.724 111.648-52.637 217.074-136.567 292.161-11.204 10.025-23.062 19.551-35.234 28.306-26.681 19.2-60.31 4.474-112.974-21.145-40.223-19.563-85.808-41.739-135.008-41.739-49.243 0-94.911 22.012-135.2 41.427-53.011 25.55-86.864 40.22-113.744 20.759-11.193-8.097-22.111-16.847-32.457-26.004-85.049-75.221-131.232-181.235-136.817-293.766h838zM0.535 5.818c2.916 63.246 17.752 124.286 44.215 181.754 28.645 62.209 69.253 116.825 120.696 162.324 11.913 10.547 24.492 20.629 37.385 29.951 27.215 19.704 58.060 25.533 94.284 17.81 28.078-5.988 56.327-19.602 83.647-32.769 35.894-17.3 73.004-27.6 107.963-27.6 34.789 0 71.788 10.408 107.562 27.81 27.171 13.218 55.26 26.883 83.207 32.956 36.098 7.842 66.849 2.149 94.020-17.402 14.009-10.082 27.666-21.048 40.58-32.599 50.833-45.482 90.94-99.905 119.2-161.768 26.093-57.098 40.731-117.702 43.626-180.467h0.535v-69.818h-977.455v69.818h0.535zM488.727 401.455c-80.563 0-156.37 28.89-213.456 81.347-57.447 52.794-89.089 123.086-89.089 197.928 0 74.836 31.637 145.129 89.089 197.923 57.086 52.457 132.893 81.347 213.456 81.347s156.37-28.89 213.456-81.347c57.447-52.794 89.089-123.086 89.089-197.923 0-74.842-31.642-145.134-89.089-197.928-57.086-52.457-132.893-81.347-213.456-81.347zM488.727 890.182c-128.324 0-232.727-93.958-232.727-209.452s104.403-209.457 232.727-209.457c128.324 0 232.727 93.963 232.727 209.457s-104.403 209.452-232.727 209.452z" />
<glyph unicode="&#xe907;" glyph-name="profile-active" horiz-adv-x="977" d="M0.535 5.818c2.916 63.246 17.752 124.286 44.215 181.754 28.645 62.209 69.253 116.825 120.696 162.324 11.913 10.547 24.492 20.629 37.385 29.951 27.215 19.704 58.060 25.533 94.284 17.81 28.078-5.988 56.327-19.602 83.647-32.769 35.894-17.3 73.004-27.6 107.963-27.6 34.789 0 71.788 10.408 107.562 27.81 27.171 13.218 55.26 26.883 83.207 32.956 36.098 7.842 66.849 2.149 94.020-17.402 14.009-10.082 27.666-21.048 40.58-32.599 50.833-45.482 90.94-99.905 119.2-161.768 26.093-57.098 40.731-117.702 43.626-180.467h0.535v-69.818h-977.455v69.818h0.535zM488.727 401.455c-80.563 0-156.37 28.89-213.456 81.347-57.447 52.794-89.089 123.086-89.089 197.928 0 74.836 31.637 145.129 89.089 197.923 57.086 52.457 132.893 81.347 213.456 81.347s156.37-28.89 213.456-81.347c57.447-52.794 89.089-123.086 89.089-197.923 0-74.842-31.642-145.134-89.089-197.928-57.086-52.457-132.893-81.347-213.456-81.347z" />
<glyph unicode="&#xe908;" glyph-name="funnel06" d="M895.89 789.602c70.506 0 128.107-57.601 128.107-128.002v-597.598c0-70.401-57.705-128.002-128.107-128.002h-426.873c-70.506 0-128.107 57.601-128.107 128.002v597.598c0 70.401 57.705 128.002 128.107 128.002h426.873zM959.996 64.002v501.112l-67.565-67.080c-17.955-17.851-41.584-27.572-66.665-27.572h-286.485c-25.116 0-48.849 9.825-66.7 27.572l-67.565 67.080v-501.112c0-16.986 6.642-32.969 18.82-45.147s28.195-18.854 45.182-18.854h427.011c16.952 0 32.969 6.677 45.147 18.854s18.82 28.16 18.82 45.147zM952.869 646.585c3.079 3.079 5.535 6.642 7.127 10.448h-0.104v4.567c0 16.986-6.642 33.004-18.82 45.181-12.212 12.178-28.195 18.82-45.182 18.82h-426.873c-16.986 0-33.004-6.642-45.182-18.82s-18.82-28.195-18.82-45.181v-4.567c1.73-3.805 4.048-7.369 7.127-10.448l104.72-103.993c6.054-5.916 14.046-9.237 22.418-9.237h286.485c8.372 0 16.364 3.183 22.383 9.237l104.72 103.993zM751.551 258.493c9.341-6.504 17.090-15.153 23.248-25.843 6.158-10.725 9.237-24.978 9.237-42.725 0-27.815-7.265-48.468-21.795-61.891-14.495-13.423-35.91-21.657-64.105-24.632v-36.913h-37.778v36.913c-26.085 2.698-45.77 9.963-59.193 21.933-13.388 11.935-20.169 30.859-20.169 56.84v11.070h73.827v-7.611c0-12.316 2.352-20.792 7.023-25.497 4.67-4.67 10.828-7.023 18.439-7.023 8.026 0 14.046 2.595 18.336 7.784 4.324 5.155 6.4 11.451 6.4 18.82 0 9.341-2.941 16.744-8.856 22.141-5.881 5.431-13.285 10.24-22.141 14.184-8.856 4.048-18.474 7.991-28.922 11.935-10.344 4.048-20.065 9.237-28.922 15.637s-16.225 14.876-22.141 25.22c-5.916 10.344-8.856 23.871-8.856 40.615 0 51.097 24.978 80.745 75.176 88.979v23.767h37.778v-23.767c27.33-2.802 47.257-11.070 59.573-24.839 12.316-13.907 18.439-34.837 18.439-63.032h-71.474v6.158c0 8.234-1.73 15.395-5.293 21.553-3.563 6.123-9.099 9.202-16.502 9.202-8.234 0-14.288-2.698-18.093-7.991-3.805-5.397-5.777-11.209-5.777-17.471 0-9.479 3.079-17.125 9.237-22.521 6.158-5.431 13.907-10.206 23.248-14.149s19.339-7.749 30.029-11.451c10.69-3.702 20.688-8.856 30.029-15.395zM111.525 783.33c-16.364-4.428-30.133-15.014-38.747-29.925-8.614-14.876-10.967-32.104-6.539-48.468l1.245-4.428c2.56-3.356 5.881-6.158 9.583-8.268l128.107-73.342c7.369-4.186 15.983-5.293 24.113-3.217l69.052 18.474v-65.004l-52.793-14.149c-24.251-6.504-49.61-3.183-71.509 9.375l-82.683 47.361 129.56-483.849c4.428-16.364 15.014-30.132 29.925-38.747 14.495-8.372 31.378-10.725 47.361-6.781v-65.004c-62.272-7.507-122.572 31.758-139.177 93.926l-154.676 577.152c-18.232 68.049 22.522 138.588 90.571 156.82l412.378 110.393c68.015 18.232 138.659-22.521 156.89-90.57l8.856-32.9h-66.216l-4.29 16.018h-0.138l-0.138 0.242c-4.428 16.364-14.98 30.167-29.89 38.781-14.876 8.614-32.105 10.967-48.468 6.504l-412.378-110.393z" />
<glyph unicode="&#xe909;" glyph-name="funnel04" horiz-adv-x="1078" d="M39.146 647.305c25.086 60.962 60.961 115.746 106.648 162.748 45.721 47.002 98.961 83.9 158.202 109.705 61.399 26.692 126.575 40.243 193.774 40.243s132.375-13.551 193.74-40.243c59.309-25.805 112.515-62.703 158.202-109.705 45.721-47.002 81.596-101.786 106.682-162.748 10.284-25.020 18.612-50.893 24.883-77.21l24.816 57.446c6.002 13.926 19.455 22.903 34.291 22.903 5.26 0 10.385-1.126 15.207-3.311 9.171-4.198 16.184-11.81 19.792-21.436 3.574-9.591 3.338-20.070-0.742-29.491l-76.909-178.074c-0.371-0.922-0.809-1.877-1.315-2.833-0.067-0.102-0.101-0.205-0.169-0.307-0.438-0.853-0.877-1.604-1.315-2.321-0.034-0.068-0.101-0.137-0.135-0.205-0.371-0.58-0.775-1.161-1.214-1.775-0.169-0.239-0.371-0.512-0.573-0.785-0.303-0.41-0.573-0.751-0.877-1.126-0.405-0.512-0.843-1.024-1.315-1.536l-0.135-0.171c-0.202-0.239-0.438-0.478-0.674-0.717s-0.506-0.512-0.742-0.751l-0.101-0.102c-0.303-0.307-0.641-0.614-0.944-0.922-0.303-0.239-0.539-0.478-0.809-0.683-0.438-0.375-0.91-0.785-1.416-1.161-0.135-0.137-0.27-0.239-0.371-0.307-0.674-0.512-1.349-0.99-2.090-1.468-0.034-0.034-0.101-0.068-0.135-0.102-0.674-0.444-1.382-0.853-2.090-1.263l-0.236-0.137c-1.517-0.853-3.102-1.57-4.687-2.185-0.067-0.034-0.101-0.034-0.135-0.034-0.674-0.273-1.382-0.512-2.158-0.751l-0.236-0.068-0.202-0.068c-0.708-0.205-1.382-0.375-2.023-0.546h-0.034l-0.303-0.068c-0.034 0-0.101-0.034-0.135-0.034-0.708-0.171-1.484-0.307-2.225-0.41-0.27-0.034-0.539-0.068-0.809-0.102l-0.135-0.034c-0.472-0.068-0.91-0.102-1.349-0.137l-0.169-0.034c-0.303-0.034-0.641-0.034-0.944-0.068-0.472-0.034-0.91-0.034-1.382-0.034l-0.101-0.034h-0.742c-1.012 0-2.023 0.034-3.136 0.137h-0.236c-1.012 0.102-2.023 0.273-3.035 0.444-0.169 0.034-0.303 0.034-0.438 0.068-1.012 0.205-1.956 0.41-2.832 0.649-0.169 0.034-0.303 0.102-0.438 0.137h-0.067c-0.742 0.239-1.517 0.478-2.259 0.751l-0.135 0.068c-0.236 0.068-0.438 0.137-0.674 0.239-0.674 0.273-1.349 0.546-1.956 0.819-0.034 0.034-0.067 0.034-0.101 0.034-0.101 0.068-0.202 0.102-0.303 0.171-0.337 0.137-0.607 0.273-0.877 0.41-0.877 0.444-1.652 0.887-2.394 1.331-0.135 0.068-0.236 0.137-0.371 0.205l-0.067 0.068c-2.057 1.263-3.945 2.697-5.665 4.267l-142.49 128.444c-15.577 13.995-17.128 38.434-3.507 54.443 7.114 8.363 17.398 13.141 28.221 13.141 9.104 0 17.87-3.379 24.715-9.557l67.637-60.962c-37.831 202.445-212.824 352.666-415.129 352.666-233.089 0-422.749-195.072-422.749-434.825s189.661-434.825 422.749-434.825c100.849 0 198.528 37.137 274.999 104.585 6.811 5.973 15.476 9.284 24.411 9.284 10.992 0 21.377-4.915 28.491-13.483 13.453-16.145 11.633-40.55-4.080-54.409-90.059-79.428-205.069-123.153-323.822-123.153-67.199 0-132.375 13.551-193.774 40.243-59.275 25.805-112.481 62.703-158.202 109.705-45.687 47.036-81.562 101.786-106.648 162.748-25.962 63.147-39.146 130.185-39.146 199.305 0 69.086 13.184 136.158 39.146 199.305zM350.413 638.976c7.168 7.27 16.725 11.298 26.863 11.298s19.695-4.028 26.829-11.298l99.977-101.581 99.942 101.547c7.168 7.27 16.691 11.298 26.829 11.298s19.695-4.028 26.863-11.298c14.814-15.053 14.814-39.526 0-54.579l-61.952-62.942h60.45c4.062 0 7.339-3.345 7.339-7.441v-62.259c0-4.13-3.277-7.475-7.339-7.475h-114.176v-51.644h114.176c4.062 0 7.339-3.345 7.339-7.475v-62.259c0-4.096-3.277-7.441-7.339-7.441h-114.176v-116.019c0-21.299-17.033-38.605-37.956-38.605-20.958 0-37.99 17.306-37.99 38.605v116.019h-114.176c-4.062 0-7.339 3.345-7.339 7.441v62.259c0 4.13 3.277 7.475 7.339 7.475h114.176v51.644h-114.176c-4.062 0-7.339 3.345-7.339 7.475v62.259c0 4.096 3.277 7.441 7.339 7.441h60.484l-61.986 62.976c-14.814 15.053-14.814 39.526 0 54.579z" />
<glyph unicode="&#xe90a;" glyph-name="funnel02" d="M1019.291 449.139h4.026v25.436c0.444-8.809 0.683-17.651 0.683-26.562 0-282.351-229.691-512.022-512.017-512.022-282.497 0-512.017 229.568-511.983 512.090 0.034 282.312 229.698 511.927 512 511.92h12.875c20.677 0 37.471-16.797 37.471-37.478s-16.794-37.443-37.471-37.443h-12.875v2.020c-0.006-0.151-0.011-0.23-0.017-0.23-241.979 0-438.833-196.861-438.833-438.857 0-241.723 197.161-438.891 438.901-438.857 237.458 0.034 431.428 189.607 438.593 426.407h-3.445v0.91c0 20.506 16.654 37.128 37.156 37.128 16.055 0 29.749-10.193 34.936-24.461zM625.491 452.204h-85.367v-60.889h85.367c15.569 0 28.129-13.613 28.129-30.444s-12.56-30.444-28.129-30.444h-85.367v-90.529c0-16.867-12.595-30.444-28.129-30.444s-28.129 13.578-28.129 30.444v90.529h-83.338c-15.534 0-28.129 13.613-28.129 30.444s12.595 30.444 28.129 30.444h83.338v60.889h-83.338c-15.534 0-28.129 13.648-28.129 30.444s12.595 30.444 28.129 30.444h83.338v5.669l-104.015 112.855c-10.986 11.898-10.461 31.144 0.525 43.077 10.951 11.898 28.759 11.968 39.78 0.035l94.569-102.146 89.321 101.622c10.776 12.213 28.444 12.633 39.64 1.050 11.266-11.583 11.441-30.864 0.7-43.042l-104.26-117.859v-1.26h85.367c15.569 0 28.129-13.648 28.129-30.444s-12.56-30.444-28.129-30.444zM978.333 780.954h-241.382c-18.172 0-32.928 16.771-32.928 37.461s14.756 37.461 32.928 37.461h241.382c18.172 0 32.89-16.771 32.89-37.461s-14.718-37.461-32.89-37.461z" />
<glyph unicode="&#xe90b;" glyph-name="funnel03" horiz-adv-x="931" d="M624.028-64c-33.057 0-61.977 29.199-61.977 62.568v8.342c-20.681-4.171-41.329-4.171-61.977-4.171h-41.329l-12.409-29.199c-8.272-20.856-33.057-37.541-57.874-37.541h-90.897c-33.057 0-62.010 29.199-62.010 62.568v79.253c-70.249 41.712-119.851 104.28-148.771 171.020l-53.704 25.027c-20.681 8.342-33.090 29.199-33.090 50.055v108.452c0 33.37 24.817 58.397 57.874 58.397h33.057c16.545 41.712 45.465 79.253 82.658 112.623l-37.193 58.397c-8.272 16.685-8.272 37.541 0 54.226s24.784 29.199 45.465 29.199c16.512 0 28.92 4.171 45.432 4.171 62.010 0 111.612-12.514 157.044-33.37 33.090 4.171 70.283 8.342 107.476 8.342 90.897 0 181.828-20.856 247.941-62.568 28.954-16.685 53.738-33.37 78.522-54.226 66.146-58.397 103.339-137.65 111.612-221.075 4.103-54.226-4.136-108.452-24.817-154.335-33.057-75.082-70.249-145.993-111.578-212.732l-28.92-50.055c-12.409-20.856-33.057-33.37-53.738-33.37h-86.794zM49.428 429.635v-107.898l73.212-37.349 4.071-12.45c24.393-62.249 73.212-120.348 142.353-157.698l12.213-8.3v-112.048c0-4.15 4.071-4.15 8.142-4.15h89.463c4.071 0 4.071 0 8.142 4.15l28.497 66.399h20.322c16.284-4.15 36.606-4.15 52.89-4.15 28.464 0 56.928 4.15 85.392 8.3l32.568 4.15 4.038-74.699c0-4.15 4.071-4.15 8.142-4.15h85.425c4.071 0 4.071 0 4.071 4.15 8.142 16.6 20.322 33.199 28.464 53.949 36.606 66.399 77.283 136.948 105.78 207.497 16.251 41.499 24.393 82.999 20.322 128.648-8.142 70.549-40.677 136.948-93.567 182.597-20.322 16.6-40.677 33.199-65.070 45.649-56.961 33.199-138.282 53.949-219.636 53.949-36.606 0-73.212-4.15-105.78-12.45l-8.109-4.15-8.142 4.15c-44.748 24.9-97.638 33.199-138.315 33.199h-40.644l48.786-99.598-16.251-12.45c-40.677-33.199-73.212-78.849-89.496-124.498l-4.071-16.6-73.212-4.15zM279.273 379.006c-12.704 0-25.373 4.225-33.842 12.676s-12.704 21.127-12.704 33.803c0 12.676 4.235 25.352 12.704 33.803s21.138 12.676 33.842 12.676c12.704 0 25.373-4.225 33.842-12.676s12.704-21.127 12.704-33.803c0-12.676-4.235-25.352-12.704-33.803-8.469-4.225-21.138-12.676-33.842-12.676zM867.063 681.124h-8.165c-8.132 4.101-12.215 8.202-16.297 16.404s-4.082 16.404 0 20.506 8.165 28.708 8.165 45.112c0 73.82-57.122 135.337-130.541 135.337-65.254 0-114.211-41.011-130.541-98.427-4.082-12.303-16.297-20.506-28.544-20.506h-8.165c-16.297 4.101-24.462 20.506-20.379 32.809 20.379 90.224 93.798 147.64 183.547 147.64h4.082c106.046-4.101 187.629-90.224 183.547-196.853 0-20.506-4.082-45.112-12.247-65.618-4.050-8.202-16.297-16.404-24.462-16.404z" />
<glyph unicode="&#xe90c;" glyph-name="funnel05" d="M350.403 673.096c7.168 7.305 16.691 11.298 26.863 11.298 10.138 0 19.661-3.994 26.829-11.298l99.977-101.581 99.908 101.547c7.202 7.305 16.725 11.298 26.863 11.298s19.695-3.994 26.863-11.298c14.814-15.053 14.814-39.526 0-54.545l-61.952-62.942h60.45c4.062 0 7.339-3.379 7.339-7.475v-62.259c0-4.096-3.277-7.441-7.339-7.441h-114.176v-51.678h114.176c4.062 0 7.339-3.345 7.339-7.475v-62.225c0-4.13-3.277-7.475-7.339-7.475h-114.176v-116.019c0-21.265-17.033-38.571-37.99-38.571-20.924 0-37.956 17.306-37.956 38.571v116.019h-114.176c-4.062 0-7.373 3.345-7.373 7.475v62.225c0 4.13 3.311 7.475 7.373 7.475h114.176v51.678h-114.176c-4.062 0-7.373 3.345-7.373 7.441v62.259c0 4.13 3.311 7.475 7.373 7.475h60.484l-61.986 62.942c-14.814 15.053-14.814 39.526 0 54.579zM0 54.156v78.78h108.305c-66.97 86.153-108.305 196.096-108.305 315.051 0 283.58 228.42 512 512 512 70.895 0 137.83-15.735 196.915-39.39v-86.153c-59.085 31.539-126.020 46.797-196.915 46.797-240.23 0-433.22-192.99-433.22-433.254 0-92.297 28.399-176.742 78.746-247.364v89.839h78.78v-236.305h-236.305zM787.692 841.844h236.305v-78.78h-108.305c66.97-86.153 108.305-196.062 108.305-315.051 0-283.58-228.42-512-512-512-70.895 0-137.83 15.735-196.915 39.39v86.153c59.085-31.505 126.020-46.797 196.915-46.797 240.23 0 433.22 192.99 433.22 433.254 0 92.297-28.399 176.742-78.746 247.364v-89.839h-78.78v236.305z" />
<glyph unicode="&#xe90d;" glyph-name="icon_helpCenter" d="M483.905 242.225c7.331 7.983 17.687 12.637 28.090 12.637 10.38 0 20.736-4.655 28.044-12.637 7.377-7.983 11.66-19.177 11.66-30.441s-4.282-22.435-11.66-30.417c-7.308-7.983-17.664-12.637-28.044-12.637-10.403 0-20.736 4.678-28.090 12.637-7.331 7.936-11.613 19.153-11.613 30.417s4.282 22.458 11.613 30.441zM590.541 433.899c-33.629-29.673-50.362-63.628-50.362-101.911l-0.349-11.729-0.047-0.116c-1.164-16.5-13.847-29.44-29.324-29.44-16.244 0-29.393 14.243-29.393 31.86 0 0.977 0.047 1.932 0.14 2.863v0.093c0 37.236 3.281 64.233 9.868 80.919 6.586 16.756 21.597 36.445 45.009 59.089l23.901 23.063c32.070 31.279 48.105 62.185 48.105 92.649 0 26.135-8.634 47.593-25.903 64.326-17.361 16.733-39.331 25.088-65.908 25.088-68.911 0-103.587-42.799-104.076-128.396v-1.908c-0.838-18.106-14.615-32.512-31.535-32.512s-30.72 14.406-31.535 32.512h-0.047c0 57.716 15.244 103.284 45.731 136.774 30.487 33.443 71.983 50.153 124.486 50.153 46.266 0 83.759-13.917 112.5-41.705 28.742-27.764 43.101-63.86 43.101-108.404 0-45.591-28.113-93.37-84.364-143.267zM874.038 810.038c-96.698 96.698-225.28 149.969-362.031 149.969-136.774 0-265.332-53.271-362.054-149.969-96.698-96.698-149.946-225.28-149.946-362.054 0-99.607 28.649-196.212 82.851-279.319 10.729-16.477 32.791-21.132 49.268-10.38 16.477 10.729 21.132 32.815 10.38 49.292-46.615 71.494-71.284 154.647-71.284 240.407 0 243.060 197.725 440.785 440.785 440.785 243.037 0 440.762-197.725 440.762-440.785 0-243.014-197.725-440.739-440.762-440.739-80.477 0-159.232 21.876-227.7 63.279-16.826 10.17-38.726 4.771-48.896-12.055-10.193-16.849-4.794-38.726 12.032-48.919 79.616-48.105 171.078-73.542 264.564-73.542 136.751 0 265.332 53.248 362.031 149.946 96.698 96.721 149.969 225.28 149.969 362.031 0 136.774-53.271 265.356-149.969 362.054z" />
<glyph unicode="&#xe90e;" glyph-name="icon_aboutZkp" d="M436.706 192.002c0-16.64 13.475-30.115 30.115-30.115 5.12 0 9.961 1.28 14.196 3.537l106.287 26.577c16.617 0 30.115 13.475 30.115 30.115s-13.498 30.115-30.115 30.115l-80.314-20.084 76.753 307.084c2.257 4.236 3.561 9.053 3.561 14.173 0 16.64-13.498 30.138-30.115 30.138-5.143 0-9.961-1.303-14.196-3.561l-106.287-26.577c-16.64 0-30.115-13.475-30.115-30.115s13.475-30.115 30.115-30.115l80.314 20.084-76.777-307.084c-2.257-4.212-3.537-9.053-3.537-14.173zM572.246 734.117c-24.972 0-45.196-20.224-45.196-45.172s20.224-45.172 45.196-45.172c24.948 0 45.172 20.224 45.172 45.172s-20.224 45.172-45.172 45.172zM874.038 810.038c-96.698 96.698-225.28 149.969-362.031 149.969-136.774 0-265.332-53.271-362.054-149.969-96.698-96.698-149.946-225.28-149.946-362.054 0-99.607 28.649-196.212 82.851-279.319 10.729-16.477 32.815-21.132 49.268-10.38 16.477 10.729 21.132 32.815 10.38 49.292-46.615 71.494-71.284 154.647-71.284 240.407 0 243.060 197.725 440.785 440.785 440.785 243.037 0 440.762-197.725 440.762-440.785 0-243.014-197.725-440.739-440.762-440.739-80.477 0-159.232 21.876-227.7 63.279-16.826 10.17-38.726 4.771-48.896-12.055-10.193-16.849-4.794-38.726 12.032-48.919 79.616-48.105 171.078-73.542 264.564-73.542 136.751 0 265.332 53.248 362.031 149.946 96.698 96.721 149.969 225.28 149.969 362.031 0 136.774-53.271 265.356-149.969 362.054z" />
<glyph unicode="&#xe90f;" glyph-name="icon_transactionRecord" d="M874.038 810.040c-96.698 96.698-225.28 149.969-362.031 149.969-136.774 0-265.332-53.271-362.054-149.969-96.698-96.698-149.946-225.28-149.946-362.054 0-99.631 28.649-196.212 82.851-279.319 10.729-16.477 32.815-21.132 49.268-10.38 16.477 10.729 21.132 32.815 10.38 49.292-46.615 71.494-71.284 154.647-71.284 240.407 0 243.060 197.725 440.785 440.785 440.785 243.037 0 440.762-197.725 440.762-440.785 0-243.014-197.725-440.739-440.762-440.739-80.477 0-159.232 21.876-227.7 63.279-16.826 10.17-38.726 4.771-48.896-12.055-10.193-16.849-4.794-38.726 12.032-48.919 79.616-48.105 171.078-73.542 264.564-73.542 136.751 0 265.332 53.248 362.031 149.946 96.698 96.721 149.969 225.28 149.969 362.031 0 136.774-53.271 265.356-149.969 362.054zM492.295 798.438c-24.925 0-45.079-20.201-45.079-45.103v-324.329c0-1.559 0.419-3.095 0.582-4.608 2.304-22.761 21.69-39.564 45.033-39.564l0.163 0.954h255.767c24.925 0 45.126 20.154 45.126 45.079 0 24.902-20.201 45.056-45.126 45.056h-211.409v277.411c0 24.902-20.131 45.103-45.056 45.103z" />
<glyph unicode="&#xe910;" glyph-name="icon_contactService" d="M960 537.261c-38.4 216.796-224 376.193-448 376.193s-409.6-165.786-448-376.193c-38.4-31.884-64-89.261-64-146.66 0-76.504 44.8-165.765 115.2-165.765 64 0 64 70.136 64 165.765 0 89.283 0 159.418-44.8 165.786 38.4 172.155 192 299.668 377.6 299.668s339.2-127.513 377.6-293.3c-44.8-12.737-44.8-76.504-44.8-165.765 0-63.767 0-108.409 12.8-140.271-57.6-89.283-140.8-153.029-243.2-178.544-19.2 25.515-57.6 44.641-102.4 44.641-64 0-115.2-31.884-115.2-70.136s51.2-70.136 115.2-70.136c64 0 115.2 31.884 115.2 70.136 102.4 25.494 192 95.63 249.6 184.912 6.4-6.389 19.2-6.389 32-6.389 70.4 0 115.2 89.261 115.2 165.786 0 51.010-25.6 108.387-64 140.271z" />
<glyph unicode="&#xe911;" glyph-name="icon_notice" horiz-adv-x="931" d="M304.624 266.217c-0.070-25.856-21.62-46.406-48.5-46.266-26.415 0.163-47.872 21.039-47.756 46.476 0.116 25.763 21.853 46.476 48.617 46.336 26.438-0.14 47.709-20.945 47.639-46.545v0zM673.655 219.962c-26.81 0.093-48.151 20.922-47.965 46.825 0.186 25.484 21.83 46.080 48.291 45.987 26.74-0.116 48.151-21.039 47.965-46.871-0.209-25.553-21.737-46.033-48.291-45.94zM464.808 219.958c-26.415 0.14-47.872 20.969-47.825 46.452 0.070 25.693 21.853 46.499 48.57 46.359 26.624-0.163 47.988-21.201 47.779-47.081-0.209-25.414-21.946-45.871-48.524-45.731zM62.061-1.939v527.515h806.788v-527.515h-806.788zM184.412 613.567c75.878 66.726 151.757 133.452 227.635 200.155 7.463 6.575 15.067 13.012 22.364 19.749 2.669 2.454 4.912 3.033 8.549 1.69 15.256-5.626 30.701-5.696 45.933 0.069 3.779 1.435 5.88 0.347 8.478-1.922 64.33-56.655 128.707-113.263 193.085-169.848 27.040-23.778 54.057-47.556 81.097-71.333 1.346-1.181 2.81-2.223 4.204-3.334-0.236-0.394-0.472-0.764-0.708-1.158h-619.898c10.367 9.192 19.79 17.596 29.26 25.931v0zM839.451 597.978c-12.405 10.669-24.508 21.637-36.727 32.49-91.144 80.925-182.264 161.874-273.454 242.753-2.816 2.489-3.957 4.516-2.63 8.295 3.514 10.047 3.491 20.37 1.164 30.693-7.238 32.237-41.080 53.136-75.41 46.592-34.004-6.475-57.558-38.965-49.854-70.948 2.374-9.862-1.094-14.54-7.867-20.531-96.45-85.327-192.877-170.699-288.653-256.717-12.731-11.429-24.974-16.89-42.732-16.199-34.772 1.383-63.261-26.752-63.261-60.095-0.047-174.017-0.023-363.55 0.023-537.567 0-3.825 0.209 7.796 1.001-11.452 1.255-30.522 32.166-49.265 65.123-49.265 134.351-0.023 266.384-0.023 398.416-0.023 132.992 0 266.007-0.046 398.998 0.161 8.1 0 16.595 1.060 24.252 3.502 27.092 8.618 43.035 31.937 43.035 61.593 0 130.421 0 276.357 0 406.777 0 40.9 0.093 81.824-0.023 122.725-0.116 33.642-21.995 58.735-55.836 63.459-7.818 1.094-33.585 2.051-35.564 3.756z" />
<glyph unicode="&#xe912;" glyph-name="icon_calc" d="M814.662 634.182h-186.415c-12.777 0-23.156 10.333-23.156 23.273 0 12.847 10.612 23.273 23.156 23.273h186.415c12.777 0 23.156-10.333 23.156-23.273 0-12.847-10.612-23.273-23.156-23.273v0zM744.727 300.606c0-12.847-10.426-23.273-23.273-23.273s-23.273 10.426-23.273 23.273c0 12.847 10.426 23.273 23.273 23.273s23.273-10.426 23.273-23.273v0zM721.455 168.727c12.847 0 23.273-10.426 23.273-23.273s-10.426-23.273-23.273-23.273c-12.847 0-23.273 10.426-23.273 23.273s10.426 23.273 23.273 23.273v0zM814.662 199.758h-186.415c-12.777 0-23.156 10.333-23.156 23.273 0 12.847 10.612 23.273 23.156 23.273h186.415c12.777 0 23.156-10.333 23.156-23.273 0-12.847-10.612-23.273-23.156-23.273v0zM0 773.968c0 102.743 83.364 186.032 186.032 186.032h651.935c102.743 0 186.032-83.364 186.032-186.032v-651.935c0-102.743-83.364-186.032-186.032-186.032h-651.935c-102.743 0-186.032 83.364-186.032 186.032v651.935zM77.576 789.442v-682.884c0-51.076 41.629-92.982 92.982-92.982h682.884c51.076 0 92.982 41.629 92.982 92.982v682.884c0 51.076-41.629 92.982-92.982 92.982h-682.884c-51.076 0-92.982-41.629-92.982-92.982zM279.273 564.247v186.415c0 12.777 10.333 23.156 23.273 23.156 12.847 0 23.273-10.612 23.273-23.156v-186.415c0-12.777-10.333-23.156-23.273-23.156-12.847 0-23.273 10.612-23.273 23.156v0zM209.338 634.182c-12.777 0-23.156 10.333-23.156 23.273 0 12.847 10.612 23.273 23.156 23.273h186.415c12.777 0 23.156-10.333 23.156-23.273 0-12.847-10.612-23.273-23.156-23.273h-186.415zM384.909 272.481l-131.815-131.815c-9.035-9.035-23.681-9.067-32.83 0.082-9.084 9.084-8.952 23.96-0.082 32.83l131.815 131.815c9.035 9.035 23.681 9.067 32.83-0.082 9.084-9.084 8.952-23.96 0.082-32.83v0zM384.909 173.579c9.035-9.035 9.067-23.681-0.082-32.83-9.084-9.084-23.96-8.952-32.83-0.082l-131.815 131.815c-9.035 9.035-9.067 23.681 0.082 32.83 9.084 9.084 23.96 8.952 32.83 0.082l131.815-131.815z" />
<glyph unicode="&#xe913;" glyph-name="icon_experience" d="M828.13 727.697c9.416 16.936 14.503 35.962 14.806 55.368-0.173 34.714-15.361 67.629-41.598 90.151-24.235 21.742-56.64 31.84-88.837 27.684h-580.966c-31.898 1.15-62.907-10.71-86.001-32.892s-36.319-52.81-36.679-84.943c0.501-44.42 24.393-85.231 62.75-107.188-27.064-21.947-42.652-55.166-42.303-90.151 0.529-30.214 12.363-59.113 33.138-80.923-5.417-2.905-10.603-6.228-15.511-9.938-25.067-20.017-41.485-49.009-45.829-80.923-4.455-32.303 4.752-65.007 25.382-90.151 7.993-9.972 17.513-18.598 28.202-25.555-21.097-19.583-34.801-45.923-38.778-74.534-4.846-32.101 3.844-64.782 23.972-90.151 21.167-25.76 51.566-42.083 84.607-45.431h293.303c113.28-85.79 264.668-100.687 392.303-38.603s210.133 190.748 213.784 333.415c3.65 142.667-72.159 275.437-196.449 344.055l0.705 0.71zM138.585 829.916h585.901c11.297 1.53 22.681-2.117 31.022-9.938 10.61-9.312 16.767-22.742 16.921-36.912-0.084-8.547-2.525-16.903-7.051-24.135-14.757 5.216-29.829 9.484-45.124 12.777h-15.511c-20.005 3.786-40.284 5.922-60.635 6.389h-20.447c-17.013-0.503-33.973-2.164-50.764-4.969l-31.728-7.099-31.022-7.099c-14.722-5.471-29.087-11.873-43.008-19.166l-17.626-9.228h-317.98c-29.046 0.382-52.499 23.996-52.879 53.239 0.705 27.684 27.497 46.14 59.93 46.14zM261.265 349.346h-146.652c-12.756 2.234-24.277 9.042-32.433 19.166-8.375 9.78-12.221 22.686-10.576 35.493 1.789 13.587 8.584 26.002 19.037 34.783 11.458 8.744 26.097 12.105 40.188 9.228h130.435c-2.371-16.217-3.549-32.588-3.525-48.98-0.072-16.629 1.106-33.24 3.525-49.69v0zM339.526 633.287v0c-9.78-12.897-18.729-26.412-26.792-40.462v-6.389c-11.002-14.862-20.899-30.522-29.612-46.85h-141.011c-25.31 0-45.829 20.658-45.829 46.14s20.518 46.14 45.829 46.14l197.416 1.42zM138.585 157.686h-8.461c-13.518 1.734-25.871 8.587-34.548 19.166-7.873 10.009-11.2 22.891-9.166 35.493 2.585 26.040 24.786 45.598 50.764 44.721h145.947c6.867-16.402 14.878-32.295 23.972-47.56v-5.679c8.318-13.825 17.502-27.103 27.497-39.752l3.525-5.679-199.531-0.71zM637.060 86.701c-59.922 0.097-118.504 17.865-168.508 51.109l-16.216 12.777c-50.905 38.586-88.609 92.178-107.874 153.328v17.036c0 10.648-4.23 20.586-6.345 29.814-2.83 15.467-4.48 31.13-4.935 46.85 0.452 15.721 2.102 31.384 4.935 46.85 0 9.228 0 18.456 5.64 29.104v1.42l4.935 16.327c16.85 59.361 50.986 112.275 98.003 151.908l19.742 15.617 8.461 4.969c18.731 11.277 38.58 20.555 59.225 27.684l18.331 5.679 31.728 7.099c12.824 2.243 25.776 3.665 38.778 4.259h19.742c15.849-0.436 31.642-2.097 47.239-4.969l16.216-3.549c12.7-3.213 25.181-7.244 37.368-12.067l13.396-4.969c132.383-59.419 205.906-203.537 176.764-346.486s-153.107-246.256-298.034-248.37l1.41-1.42zM679.363 413.233v125.644c7.782-2.761 14.463-7.992 19.037-14.907 5.841-19.602 26.359-30.725 45.829-24.845s30.518 26.538 24.677 46.14c-13.529 38.070-46.944 65.421-86.722 70.985v0.71c0 19.602-15.783 35.493-35.253 35.493s-35.253-15.891-35.253-35.493c-55.884-2.688-103.427-41.904-117.039-96.54-8.58-53.996 18.115-107.462 66.275-132.742 15.511-7.808 31.728-14.197 47.944-20.586v-127.063c-28.588 7.654-50.917 30.135-58.52 58.918-4.673 19.602-24.244 31.679-43.713 26.974s-31.465-24.409-26.792-44.011c15.629-61.829 67.499-107.559 130.435-114.996 4.992-13.695 17.943-22.799 32.433-22.799s27.44 9.104 32.433 22.799c35.324 5.495 67.030 24.903 88.132 53.949 23.925 32.34 29.023 75.028 13.396 112.157-20.131 39.619-55.577 69.145-98.003 81.633l0.705-1.42zM594.756 448.725c-20.301 10.869-32.017 33.056-29.612 56.078 4.958 21.097 21.831 37.249 43.008 41.171v-102.219l-13.396 4.969zM706.155 262.034c-7.075-9.618-16.923-16.806-28.202-20.586v91.571c14.164-6.449 25.814-17.429 33.138-31.233 4.908-13.266 3.065-28.11-4.935-39.752v0z" />
<glyph unicode="&#xe914;" glyph-name="icon_bankCard" d="M0 704c0 64.266 52.188 116.364 116.469 116.364h791.062c64.324 0 116.469-52.072 116.469-116.364v-512c0-64.266-52.188-116.364-116.469-116.364h-791.062c-64.324 0-116.469 52.072-116.469 116.364v512zM62.061 711.657v-527.313c0-25.998 20.813-46.646 46.486-46.646h806.906c25.567 0 46.486 20.884 46.486 46.646v527.313c0 25.998-20.813 46.646-46.486 46.646h-806.906c-25.567 0-46.486-20.884-46.486-46.646zM155.152 448h341.333c17.138 0 31.030-13.893 31.030-31.030v0c0-17.138-13.893-31.030-31.030-31.030h-341.333c-17.138 0-31.030 13.893-31.030 31.030v0c0 17.138 13.893 31.030 31.030 31.030zM155.152 292.848h341.333c17.138 0 31.030-13.893 31.030-31.030v0c0-17.138-13.893-31.030-31.030-31.030h-341.333c-17.138 0-31.030 13.893-31.030 31.030v0c0 17.138 13.893 31.030 31.030 31.030zM651.636 649.55c0 25.788 20.738 46.693 46.693 46.693h154.857c25.788 0 46.693-20.738 46.693-46.693v-154.857c0-25.788-20.738-46.693-46.693-46.693h-154.857c-25.788 0-46.693 20.738-46.693 46.693v154.857zM698.182 626.469v-108.696c0-12.807 10.399-23.228 23.228-23.228h108.696c12.807 0 23.228 10.399 23.228 23.228v108.696c0 12.807-10.399 23.228-23.228 23.228h-108.696c-12.807 0-23.228-10.399-23.228-23.228z" />
<glyph unicode="&#xe915;" glyph-name="icon_myCoupon" d="M443.704 261.083c-9.356 0-18.711 3.561-25.856 10.636-14.289 14.22-14.289 37.167 0 51.363l204.102 202.822c14.289 14.22 37.399 14.22 51.689 0 14.289-14.15 14.289-37.143 0-51.363l-204.102-202.822c-7.145-7.075-16.524-10.636-25.833-10.636zM334.485 369.58c-9.356 0-18.711 3.561-25.856 10.636-14.289 14.22-14.289 37.167 0 51.363l204.079 202.822c14.313 14.22 37.446 14.22 51.735 0 14.243-14.15 14.243-37.143 0-51.363l-204.079-202.822c-7.168-7.075-16.524-10.636-25.879-10.636zM350.008 81.278l55.249-56.623c8.285-8.378 23.087-8.681 31.744-0.256l506.647 493.149c4.329 4.212 6.726 9.844 6.819 15.849 0.023 5.911-2.234 11.473-6.4 15.686l-55.249 56.669c-24.343-14.569-52.34-22.342-81.431-22.342-43.031 0-83.247 16.826-113.315 47.407-29.58 30.022-45.568 69.702-45.079 111.709 0.372 29.719 8.89 58.065 24.553 82.502l-55.249 56.576c-8.239 8.332-23.156 8.588-31.814 0.233l-506.531-493.196c-4.352-4.212-6.772-9.844-6.842-15.802-0.023-5.958 2.234-11.543 6.4-15.825l55.203-56.553c24.343 14.569 52.317 22.342 81.361 22.342 43.031 0 83.316-16.849 113.361-47.476 29.533-29.999 45.591-69.679 45.079-111.663-0.349-29.626-8.867-57.972-24.506-82.385zM421.222-54.635c-25.949 0-50.269 10.17-68.399 28.672l-77.754 79.639c-14.033 14.383-13.708 37.283 0.698 51.293 16.314 15.802 25.414 36.934 25.67 59.578 0.256 22.598-8.378 43.916-24.273 60.067-31.884 32.442-88.017 33.094-120.529 1.489-6.935-6.749-17.501-10.287-26.019-10.356-9.728 0.163-19.014 4.073-25.786 11.055l-77.638 79.5c-17.711 17.943-27.439 41.914-27.183 67.305 0.279 25.437 10.519 49.175 28.835 66.979l506.577 493.219c36.771 35.561 99.561 34.769 135.261-1.489l77.801-79.686c14.057-14.383 13.708-37.306-0.721-51.293-16.268-15.825-25.414-37.004-25.67-59.625-0.256-22.644 8.378-43.962 24.25-60.16 31.837-32.326 88.017-33.047 120.623-1.42 6.959 6.749 16.78 9.519 26.019 10.356 9.728-0.14 19.014-4.096 25.74-11.055l77.615-79.569c17.687-17.827 27.415-41.728 27.183-67.095-0.209-25.414-10.403-49.245-28.695-67.049l-506.74-493.289c-18.060-17.478-41.798-27.066-66.863-27.066z" />
<glyph unicode="&#xe916;" glyph-name="icon_myAsset" d="M558.545 308.382c0 51.403 41.716 93.073 93.073 93.073h279.309c51.403 0 93.073-41.716 93.073-93.073v-279.309c0-51.403-41.716-93.073-93.073-93.073h-279.309c-51.403 0-93.073 41.716-93.073 93.073v279.309zM636.121 292.991v-248.528c0-16.952 13.829-30.887 30.887-30.887h248.528c16.952 0 30.887 13.829 30.887 30.887v248.528c0 16.952-13.829 30.887-30.887 30.887h-248.528c-16.952 0-30.887-13.829-30.887-30.887zM0 308.382c0 51.403 41.716 93.073 93.073 93.073h279.309c51.403 0 93.073-41.716 93.073-93.073v-279.309c0-51.403-41.716-93.073-93.073-93.073h-279.309c-51.403 0-93.073 41.716-93.073 93.073v279.309zM77.576 292.991v-248.528c0-16.952 13.829-30.887 30.887-30.887h248.528c16.952 0 30.887 13.829 30.887 30.887v248.528c0 16.952-13.829 30.887-30.887 30.887h-248.528c-16.952 0-30.887-13.829-30.887-30.887zM0 866.927c0 51.403 41.716 93.073 93.073 93.073h279.309c51.403 0 93.073-41.716 93.073-93.073v-279.309c0-51.403-41.716-93.073-93.073-93.073h-279.309c-51.403 0-93.073 41.716-93.073 93.073v279.309zM77.576 851.537v-248.528c0-16.952 13.829-30.887 30.887-30.887h248.528c16.952 0 30.887 13.829 30.887 30.887v248.528c0 16.952-13.829 30.887-30.887 30.887h-248.528c-16.952 0-30.887-13.829-30.887-30.887zM558.545 866.927c0 51.403 41.716 93.073 93.073 93.073h279.309c51.403 0 93.073-41.716 93.073-93.073v-279.309c0-51.403-41.716-93.073-93.073-93.073h-279.309c-51.403 0-93.073 41.716-93.073 93.073v279.309zM636.121 851.537v-248.528c0-16.952 13.829-30.887 30.887-30.887h248.528c16.952 0 30.887 13.829 30.887 30.887v248.528c0 16.952-13.829 30.887-30.887 30.887h-248.528c-16.952 0-30.887-13.829-30.887-30.887z" />
<glyph unicode="&#xe917;" glyph-name="icon_myRecommend" d="M181.443 217.795h76.8l-27.578-170.659c-1.955-11.916 1.978-23.808 11.823-29.766s19.689-7.936 31.511-1.978l230.4 126.999 230.4-125.021c9.844-5.958 21.667-3.98 29.533 1.978 9.844 5.958 13.801 17.85 11.823 29.766l-43.311 277.83 190.999 198.447c7.889 7.936 9.844 19.852 5.911 31.744-3.933 9.937-11.823 17.873-23.622 19.852l-261.911 41.681-114.223 248.064c-3.933 9.914-15.756 17.85-25.6 17.85-11.823 0-21.667-5.935-25.6-17.85l-114.223-248.064-261.911-41.681c-9.821-1.978-19.689-9.914-23.622-19.852-3.933-11.892 0-21.807 5.911-31.744l139.823-146.851-57.111-51.596-137.844 144.873c-27.578 29.766-37.423 71.424-23.645 109.149 11.823 37.702 45.312 65.489 84.689 71.447l222.511 33.722 94.534 212.34c17.711 37.702 55.133 61.533 96.489 61.533s78.778-23.831 96.489-61.533l96.489-210.362 222.534-35.7c39.377-5.958 70.889-33.745 84.666-71.447 11.823-37.725 3.956-79.383-23.622-109.149l-165.423-172.66 37.423-238.127c5.911-41.681-9.844-81.361-43.311-105.193-17.734-13.894-39.401-19.828-61.068-19.828-17.711 0-35.444 3.956-51.2 13.871l-192.977 105.193-192.977-105.193c-15.756-7.936-33.489-13.871-51.2-13.871-21.667 0-43.334 5.935-61.044 19.828-33.489 23.831-49.245 63.511-43.334 105.193l25.6 156.765z" />
<glyph unicode="&#xe918;" glyph-name="icon_set" d="M589.576 308.364h403.394c17.138 0 31.030-13.893 31.030-31.030v0c0-17.138-13.893-31.030-31.030-31.030h-403.394c-17.138 0-31.030 13.893-31.030 31.030v0c0 17.138 13.893 31.030 31.030 31.030zM589.576 153.212h403.394c17.138 0 31.030-13.893 31.030-31.030v0c0-17.138-13.893-31.030-31.030-31.030h-403.394c-17.138 0-31.030 13.893-31.030 31.030v0c0 17.138 13.893 31.030 31.030 31.030zM589.576-1.939h403.394c17.138 0 31.030-13.893 31.030-31.030v0c0-17.138-13.893-31.030-31.030-31.030h-403.394c-17.138 0-31.030 13.893-31.030 31.030v0c0 17.138 13.893 31.030 31.030 31.030zM482.495 960c-80.78 0-156.719-30.511-213.83-85.923s-88.576-129.071-88.576-207.43c0-60.742 18.991-119.017 54.877-168.541 10.077-13.894 29.836-17.245 44.172-7.471 14.313 9.751 17.757 28.951 7.68 42.822-28.346 39.121-43.334 85.178-43.334 133.19 0 127.86 107.217 231.866 239.011 231.866s239.011-104.006 239.011-231.866c0-127.837-107.217-231.843-239.011-231.843-65.117 0-128.303-12.381-187.811-36.794-57.46-23.575-109.056-57.321-153.367-100.305-44.288-42.985-79.081-93.021-103.377-148.759-25.181-57.716-37.935-119.017-37.935-182.202 0-16.989 14.196-30.743 31.697-30.743s31.697 13.754 31.697 30.743c0 224.186 187.997 406.551 419.095 406.551 80.78 0 156.719 30.534 213.83 85.923 57.111 55.412 88.576 129.071 88.576 207.43s-31.465 152.017-88.576 207.43c-57.111 55.412-133.050 85.923-213.83 85.923z" />
<glyph unicode="&#xe919;" glyph-name="homepage" horiz-adv-x="1164" d="M942.545-64h-214.109c-23.273 0-39.564 18.618-39.564 39.564v200.145h-188.509v-200.145c0-20.945-18.618-39.564-39.564-39.564h-214.109c-23.273 0-39.564 18.618-39.564 39.564v442.182h-167.564c-16.291 0-32.582 11.636-37.236 25.6-6.982 16.291-2.327 32.582 11.636 44.218l542.255 463.127c16.291 13.964 37.236 13.964 53.527 0l542.255-460.8c11.636-9.309 13.964-18.618 13.964-25.6s0-18.618-9.309-27.927c-9.309-11.636-23.273-16.291-37.236-16.291h-134.982v-444.509c-2.327-20.945-20.945-39.564-41.891-39.564zM756.364 5.818h155.927v484.073h128l-458.473 390.982-460.8-390.982h151.273v-484.073h155.927v239.709h328.145v-239.709z" />
</font>
</defs>
</svg>
