<?xml version="1.0" encoding="utf-8"?>
<!-- Generator: Adobe Illustrator 22.0.1, SVG Export Plug-In . SVG Version: 6.00 Build 0)  -->
<svg version="1.1" id="圖層_1" xmlns="http://www.w3.org/2000/svg" xmlns:xlink="http://www.w3.org/1999/xlink" x="0px" y="0px"
	 viewBox="0 0 30.7 43.8" style="enable-background:new 0 0 30.7 43.8;" xml:space="preserve">
<style type="text/css">
	.st0{fill:#F7E4AB;}
	.st1{fill:#DA7926;}
</style>
<g>
	<circle class="st0" cx="15.5" cy="15.3" r="4.5"/>
	<g>
		<g>
			<path class="st1" d="M15.5,9.6c-3.1,0-5.6,2.5-5.6,5.6c0,3.1,2.5,5.6,5.6,5.6c3.1,0,5.6-2.5,5.6-5.6C21.1,12.1,18.6,9.6,15.5,9.6
				L15.5,9.6z M15.5,19.2c-2.2,0-4-1.8-4-4c0-2.2,1.8-4,4-4c2.2,0,4,1.8,4,4C19.5,17.4,17.7,19.2,15.5,19.2L15.5,19.2z M15.5,19.2"
				/>
			<path class="st1" d="M26.2,4.5C23.3,1.6,19.4,0,15.3,0c-4.1,0-8,1.6-10.9,4.5c-5.4,5.4-6,15.4-1.4,21.6l12.3,17.8l12.3-17.7
				C32.2,19.9,31.6,9.9,26.2,4.5L26.2,4.5z M26.3,25.1L15.3,41l-11-15.9C0.2,19.6,0.8,10.5,5.6,5.6c2.6-2.6,6-4,9.7-4
				c3.7,0,7.1,1.4,9.7,4C29.9,10.5,30.5,19.6,26.3,25.1L26.3,25.1z M26.3,25.1"/>
		</g>
	</g>
</g>
</svg>
