<?xml version="1.0" encoding="utf-8"?>
<!-- Generator: Adobe Illustrator 22.0.1, SVG Export Plug-In . SVG Version: 6.00 Build 0)  -->
<svg version="1.1" id="圖層_1" xmlns="http://www.w3.org/2000/svg" xmlns:xlink="http://www.w3.org/1999/xlink" x="0px" y="0px"
	 viewBox="0 0 25.8 33" style="enable-background:new 0 0 25.8 33;" xml:space="preserve">
<style type="text/css">
	.st0{fill:#FFFFFF;}
</style>
<g>
	<g>
		<g>
			<path class="st0" d="M7.1,30.9l4.8,2.1c0.1,0.1,0.3,0.1,0.4,0l4.8-2.1c0.3-0.1,0.5-0.2,0.8-0.4c0.3-0.1,0.4-0.5,0.2-0.7
				c-0.1-0.3-0.5-0.4-0.7-0.2c-0.2,0.1-0.5,0.2-0.7,0.3l-4.5,2l-4.5-2c-2.1-0.9-3.8-2.5-5-4.4c-1-1.7-1.5-3.7-1.5-5.6V3.6
				c3.7,0.6,7.4-0.2,10.6-2.1l0.4-0.3l0.4,0.3c3.2,1.9,6.9,2.7,10.6,2.1v16.3c0,0.3,0.2,0.6,0.6,0.6s0.6-0.2,0.6-0.6V2.9
				c0-0.3-0.2-0.6-0.6-0.5c0,0-0.1,0-0.1,0C20,3.1,16.2,2.4,13.1,0.5l-0.7-0.4C12.2,0,12,0,11.8,0.1l-0.7,0.4C8,2.4,4.2,3.1,0.7,2.4
				C0.4,2.3,0.1,2.5,0,2.8c0,0,0,0.1,0,0.1v16.9C0,22,0.6,24.1,1.7,26C2.9,28.2,4.8,29.9,7.1,30.9L7.1,30.9z"/>
			<path class="st0" d="M11.8,4.9c0.3-0.1,0.4-0.5,0.2-0.7c-0.1-0.3-0.5-0.4-0.7-0.2c0,0,0,0,0,0c-2.5,1.5-5.5,2-8.4,1.4
				C2.6,5.3,2.3,5.5,2.2,5.8c0,0,0,0.1,0,0.1V19c0,1.7,0.5,3.4,1.4,4.9c1.1,1.7,2.6,3.1,4.5,3.8c0.3,0.1,0.6,0,0.7-0.3
				c0.1-0.3,0-0.6-0.3-0.7c-1.6-0.7-3-1.9-4-3.4C3.7,22,3.3,20.6,3.3,19V6.5C6.3,7,9.3,6.4,11.8,4.9L11.8,4.9z"/>
			<path class="st0" d="M22,32.5c0.6,0,1.1-0.5,1.1-1.1c0-0.1,0-0.2,0-0.3l2.6-2.6c0.2-0.2,0.2-0.6-0.1-0.8c-0.2-0.2-0.5-0.2-0.7,0
				l-2.6,2.6c-0.2-0.1-0.4-0.1-0.6,0l-4.8-4.8c-0.2-0.2-0.6-0.2-0.8,0c-0.2,0.2-0.2,0.6,0,0.8l4.8,4.8c-0.2,0.6,0.2,1.2,0.8,1.3
				C21.8,32.4,21.9,32.5,22,32.5L22,32.5z"/>
		</g>
		<path class="st0" d="M8.8,16.2l1.8,1.8c0.2,0.2,0.6,0.2,0.8,0l6.8-6.8l1.4,1.4L11,21.2l-3.6-3.6L8.8,16.2L8.8,16.2z M11,22.6
			c0.1,0,0.3-0.1,0.4-0.2l9.4-9.4c0.2-0.2,0.2-0.6,0-0.8l-2.2-2.2c-0.2-0.2-0.6-0.2-0.8,0L11,16.8L9.2,15c-0.2-0.2-0.6-0.2-0.8,0
			l-2.2,2.2C6,17.4,6,17.8,6.2,18l4.4,4.4C10.7,22.5,10.9,22.6,11,22.6L11,22.6z"/>
	</g>
</g>
</svg>
