<?xml version="1.0" encoding="utf-8"?>
<!-- Generator: Adobe Illustrator 22.0.1, SVG Export Plug-In . SVG Version: 6.00 Build 0)  -->
<svg version="1.1" id="圖層_1" xmlns="http://www.w3.org/2000/svg" xmlns:xlink="http://www.w3.org/1999/xlink" x="0px" y="0px"
	 viewBox="0 0 40.6 36.8" style="enable-background:new 0 0 40.6 36.8;" xml:space="preserve">
<style type="text/css">
	.st0{fill:#FFFFFF;}
</style>
<g>
	<g>
		<path class="st0" d="M20.5,21.6c-0.4,0-0.8,0.3-0.8,1v4.1c0,0.2,0.1,0.3,0.3,0.3s0.3-0.1,0.3-0.3v-4.1c0-0.3,0.1-0.3,0.2-0.3
			c0,0,0.2,0,0.2,0.3v4.1c0,0.2,0.1,0.3,0.3,0.3c0.2,0,0.3-0.1,0.3-0.3v-4.1C21.3,21.9,20.9,21.6,20.5,21.6L20.5,21.6z"/>
		<path class="st0" d="M10.5,10.8H5.7c-0.2,0-0.3,0.1-0.3,0.3c0,0.2,0.1,0.3,0.3,0.3h4.8c0.2,0,0.3-0.1,0.3-0.3
			C10.8,10.9,10.7,10.8,10.5,10.8L10.5,10.8z"/>
		<path class="st0" d="M10.5,15.9H5.7c-0.2,0-0.3,0.1-0.3,0.3c0,0.2,0.1,0.3,0.3,0.3h4.8c0.2,0,0.3-0.1,0.3-0.3
			C10.8,16,10.7,15.9,10.5,15.9L10.5,15.9z"/>
		<path class="st0" d="M10.5,20.9H5.7c-0.2,0-0.3,0.1-0.3,0.3c0,0.2,0.1,0.3,0.3,0.3h4.8c0.2,0,0.3-0.1,0.3-0.3
			C10.8,21.1,10.7,20.9,10.5,20.9L10.5,20.9z"/>
		<path class="st0" d="M10.5,26H5.7c-0.2,0-0.3,0.1-0.3,0.3c0,0.2,0.1,0.3,0.3,0.3h4.8c0.2,0,0.3-0.1,0.3-0.3
			C10.8,26.2,10.7,26,10.5,26L10.5,26z"/>
		<path class="st0" d="M37,1.6H3.9C1.8,1.6,0,3.4,0,5.4V28c0,2,1.8,3.8,3.9,3.8h6.6c0.2,0,0.3-0.1,0.3-0.3c0-0.2-0.1-0.3-0.3-0.3
			H3.9c-1.8,0-3.3-1.4-3.3-3.1V5.4c0-1.7,1.5-3.2,3.3-3.2H37c1.7,0,3,1.4,3,3.2V28c0,1.7-1.3,3.1-3,3.1h-6.5c-0.2,0-0.3,0.1-0.3,0.3
			c0,0.2,0.1,0.3,0.3,0.3H37c2,0,3.6-1.7,3.6-3.8V5.4C40.6,3.3,39,1.6,37,1.6L37,1.6z"/>
		<path class="st0" d="M31.1,5.4H1c-0.2,0-0.3,0.1-0.3,0.3C0.6,5.9,0.8,6,1,6h30.2c0.2,0,0.3-0.1,0.3-0.3
			C31.4,5.5,31.3,5.4,31.1,5.4L31.1,5.4z"/>
		<path class="st0" d="M40,5.4h-4.8c-0.2,0-0.3,0.1-0.3,0.3c0,0.2,0.1,0.3,0.3,0.3H40c0.2,0,0.3-0.1,0.3-0.3
			C40.3,5.5,40.2,5.4,40,5.4L40,5.4z"/>
		<path class="st0" d="M6,0C5.9,0,5.7,0.1,5.7,0.3v3.2c0,0.2,0.1,0.3,0.3,0.3c0.2,0,0.3-0.1,0.3-0.3V0.3C6.4,0.1,6.2,0,6,0L6,0z"/>
		<path class="st0" d="M10.8,0c-0.2,0-0.3,0.1-0.3,0.3v3.2c0,0.2,0.1,0.3,0.3,0.3c0.2,0,0.3-0.1,0.3-0.3V0.3C11.1,0.1,11,0,10.8,0
			L10.8,0z"/>
		<path class="st0" d="M15.6,0c-0.2,0-0.3,0.1-0.3,0.3v3.2c0,0.2,0.1,0.3,0.3,0.3c0.2,0,0.3-0.1,0.3-0.3V0.3C15.9,0.1,15.7,0,15.6,0
			L15.6,0z"/>
		<path class="st0" d="M20.3,0C20.1,0,20,0.1,20,0.3v3.2c0,0.2,0.1,0.3,0.3,0.3s0.3-0.1,0.3-0.3V0.3C20.6,0.1,20.5,0,20.3,0L20.3,0z
			"/>
		<path class="st0" d="M25.1,0c-0.2,0-0.3,0.1-0.3,0.3v3.2c0,0.2,0.1,0.3,0.3,0.3c0.2,0,0.3-0.1,0.3-0.3V0.3C25.4,0.1,25.3,0,25.1,0
			L25.1,0z"/>
		<path class="st0" d="M29.8,0c-0.2,0-0.3,0.1-0.3,0.3v3.2c0,0.2,0.1,0.3,0.3,0.3s0.3-0.1,0.3-0.3V0.3C30.2,0.1,30,0,29.8,0L29.8,0z
			"/>
		<path class="st0" d="M34.6,0c-0.2,0-0.3,0.1-0.3,0.3v3.2c0,0.2,0.1,0.3,0.3,0.3c0.2,0,0.3-0.1,0.3-0.3V0.3C34.9,0.1,34.8,0,34.6,0
			L34.6,0z"/>
		<path class="st0" d="M18.4,10.8H14c-0.2,0-0.3,0.1-0.3,0.3c0,0.2,0.1,0.3,0.3,0.3h4.4c0.2,0,0.3-0.1,0.3-0.3
			C18.7,10.9,18.6,10.8,18.4,10.8L18.4,10.8z"/>
		<path class="st0" d="M18.4,15.9H14c-0.2,0-0.3,0.1-0.3,0.3c0,0.2,0.1,0.3,0.3,0.3h4.4c0.2,0,0.3-0.1,0.3-0.3
			C18.7,16,18.6,15.9,18.4,15.9L18.4,15.9z"/>
		<path class="st0" d="M26.7,10.8h-4.4c-0.2,0-0.3,0.1-0.3,0.3c0,0.2,0.1,0.3,0.3,0.3h4.4c0.2,0,0.3-0.1,0.3-0.3
			C27,10.9,26.8,10.8,26.7,10.8L26.7,10.8z"/>
		<path class="st0" d="M26.7,15.9h-4.4c-0.2,0-0.3,0.1-0.3,0.3c0,0.2,0.1,0.3,0.3,0.3h4.4c0.2,0,0.3-0.1,0.3-0.3
			C27,16,26.8,15.9,26.7,15.9L26.7,15.9z"/>
		<path class="st0" d="M26.7,10.8h-4.4c-0.2,0-0.3,0.1-0.3,0.3c0,0.2,0.1,0.3,0.3,0.3h4.4c0.2,0,0.3-0.1,0.3-0.3
			C27,10.9,26.8,10.8,26.7,10.8L26.7,10.8z"/>
		<path class="st0" d="M34.9,10.8h-4.4c-0.2,0-0.3,0.1-0.3,0.3c0,0.2,0.1,0.3,0.3,0.3h4.4c0.2,0,0.3-0.1,0.3-0.3
			C35.2,10.9,35.1,10.8,34.9,10.8L34.9,10.8z"/>
		<path class="st0" d="M34.9,15.9h-4.4c-0.2,0-0.3,0.1-0.3,0.3c0,0.2,0.1,0.3,0.3,0.3h4.4c0.2,0,0.3-0.1,0.3-0.3
			C35.2,16,35.1,15.9,34.9,15.9L34.9,15.9z"/>
		<path class="st0" d="M34.9,20.9h-4.4c-0.2,0-0.3,0.1-0.3,0.3c0,0.2,0.1,0.3,0.3,0.3h4.4c0.2,0,0.3-0.1,0.3-0.3
			C35.2,21.1,35.1,20.9,34.9,20.9L34.9,20.9z"/>
		<path class="st0" d="M34.9,26h-4.4c-0.2,0-0.3,0.1-0.3,0.3c0,0.2,0.1,0.3,0.3,0.3h4.4c0.2,0,0.3-0.1,0.3-0.3
			C35.2,26.2,35.1,26,34.9,26L34.9,26z"/>
		<path class="st0" d="M20.5,36.2c-4.7,0-8.5-3.8-8.5-8.5s3.8-8.5,8.5-8.5c4.7,0,8.5,3.8,8.5,8.5S25.2,36.2,20.5,36.2L20.5,36.2z
			 M20.5,18.4c-5.1,0-9.2,4.1-9.2,9.2c0,5.1,4.1,9.2,9.2,9.2c5.1,0,9.2-4.1,9.2-9.2S25.6,18.4,20.5,18.4L20.5,18.4z"/>
		<path class="st0" d="M20.5,34.9c-4,0-7.3-3.3-7.3-7.3s3.3-7.3,7.3-7.3c4,0,7.3,3.3,7.3,7.3C27.8,31.6,24.5,34.9,20.5,34.9
			L20.5,34.9z M20.5,19.7c-4.4,0-7.9,3.6-7.9,7.9s3.6,7.9,7.9,7.9c4.4,0,7.9-3.6,7.9-7.9S24.9,19.7,20.5,19.7L20.5,19.7z"/>
		<path class="st0" d="M20.5,28.3c-0.3,0-0.6-0.3-0.6-0.6c0-0.4,0.3-0.6,0.6-0.6c0.4,0,0.6,0.3,0.6,0.6C21.1,28,20.8,28.3,20.5,28.3
			L20.5,28.3z M20.5,26.3c-0.7,0-1.3,0.6-1.3,1.3c0,0.7,0.6,1.3,1.3,1.3c0.7,0,1.3-0.6,1.3-1.3C21.8,26.9,21.2,26.3,20.5,26.3
			L20.5,26.3z"/>
		<path class="st0" d="M25.6,26.7h-4.3c-0.2,0-0.3,0.1-0.3,0.3c0,0.2,0.1,0.3,0.3,0.3h4.3c0.2,0,0.3,0.1,0.3,0.3
			c0,0.2-0.1,0.3-0.3,0.3h-4.3c-0.2,0-0.3,0.1-0.3,0.3c0,0.2,0.1,0.3,0.3,0.3h4.3c0.5,0,1-0.4,1-1C26.5,27.1,26.1,26.7,25.6,26.7
			L25.6,26.7z"/>
	</g>
</g>
</svg>
