<?xml version="1.0" encoding="utf-8"?>
<!-- Generator: Adobe Illustrator 22.0.1, SVG Export Plug-In . SVG Version: 6.00 Build 0)  -->
<svg version="1.1" id="圖層_1" xmlns="http://www.w3.org/2000/svg" xmlns:xlink="http://www.w3.org/1999/xlink" x="0px" y="0px"
	 viewBox="0 0 29.9 29.9" style="enable-background:new 0 0 29.9 29.9;" xml:space="preserve">
<style type="text/css">
	.st0{fill:#FFFFFF;}
</style>
<g>
	<g>
		<path class="st0" d="M29.3,28.6h-28v-28C1.3,0.3,1,0,0.7,0C0.3,0,0,0.3,0,0.7v28.6c0,0.4,0.3,0.7,0.7,0.7h28.6
			c0.4,0,0.7-0.3,0.7-0.7S29.6,28.6,29.3,28.6L29.3,28.6z"/>
		<path class="st0" d="M14.1,9.3L6.3,1.5c-0.3-0.3-0.7-0.3-0.9,0c-0.3,0.3-0.3,0.7,0,0.9L13,10V15c0,0.4,0.3,0.7,0.7,0.7h4.9
			l7.8,7.8h-6.2c-0.4,0-0.7,0.3-0.7,0.7c0,0.4,0.3,0.7,0.7,0.7H28c0.1,0,0.2,0,0.2-0.1c0.2-0.1,0.3-0.2,0.4-0.4
			c0-0.1,0.1-0.2,0.1-0.2v-7.8c0-0.4-0.3-0.7-0.7-0.7c-0.4,0-0.7,0.3-0.7,0.7v6.2l-8-8c-0.1-0.1-0.3-0.2-0.5-0.2h-4.6V9.8
			C14.3,9.6,14.2,9.4,14.1,9.3L14.1,9.3z"/>
	</g>
</g>
</svg>
