<?xml version="1.0" encoding="utf-8"?>
<!-- Generator: Adobe Illustrator 22.0.1, SVG Export Plug-In . SVG Version: 6.00 Build 0)  -->
<svg version="1.1" id="圖層_1" xmlns="http://www.w3.org/2000/svg" xmlns:xlink="http://www.w3.org/1999/xlink" x="0px" y="0px"
	 viewBox="0 0 37.3 38.5" style="enable-background:new 0 0 37.3 38.5;" xml:space="preserve">
<style type="text/css">
	.st0{fill:#FFFFFF;}
</style>
<g>
	<g>
		<g>
			<path class="st0" d="M36.2,29.7c0,0.1-0.1,0.1-0.1,0.1l0,0h-6.9c-1.2,0-2.2-0.7-2.7-1.6c0,0,0-0.1-0.1-0.1c0-0.1-0.1-0.2-0.1-0.3
				c-0.1-0.3-0.2-0.7-0.2-1.1c0-0.4,0.1-0.7,0.2-1.1c0-0.1,0.1-0.2,0.1-0.3c0,0,0-0.1,0.1-0.1c0.5-1,1.5-1.6,2.7-1.6h6.9l0,0
				c0.1,0,0.1,0.1,0.1,0.1V29.7L36.2,29.7L36.2,29.7z M34.4,33.5H7.6C7.3,33.5,7,33.7,7,34c0,0.3,0.2,0.5,0.5,0.5h26.8v1.5
				c0,0.7-0.6,1.3-1.3,1.3H2.4c-0.7,0-1.3-0.6-1.3-1.3v-1.5h3c0.3,0,0.5-0.2,0.5-0.5c0-0.3-0.2-0.5-0.5-0.5h-3V20h33.3v2.6h-5.2h0
				c-1.6,0-3.1,1-3.7,2.3c0,0,0,0,0,0c0,0,0,0,0,0c-0.1,0.2-0.2,0.3-0.2,0.5c0,0,0,0,0,0c-0.1,0.4-0.2,0.8-0.2,1.2l0,0l0,0
				c0,2.3,1.9,4.2,4.2,4.2h0h5.2L34.4,33.5L34.4,33.5L34.4,33.5z M1.1,17.4c0-0.7,0.6-1.3,1.3-1.3h30.6c0.7,0,1.3,0.6,1.3,1.3v1.5
				H1.1V17.4L1.1,17.4z M2.5,14.7c0-0.4,0.3-0.8,0.8-0.8h1.3l0,0l-0.1,1h-2V14.7L2.5,14.7z M24.3,14.9h-6.8c0.2-1.7,1.6-3.1,3.4-3.1
				C22.7,11.8,24.1,13.2,24.3,14.9L24.3,14.9z M20.9,10.7c-2.4,0-4.4,1.9-4.5,4.2h-2.8l6.5-9.5c0,0,0,0,0,0c0-0.1,0.1-0.1,0.2-0.1
				c0,0,0,0,0,0c0.9,0.1,1.8,0,2.6-0.5c0.1,0,0.1,0,0.2,0l5.8,3.9c0.1,0,0.1,0.1,0.1,0.2c-0.1,0.9,0.1,1.8,0.5,2.6
				c0,0.1,0,0.1,0,0.2l-2.1,3.1h-1.9C25.2,12.6,23.3,10.7,20.9,10.7L20.9,10.7z M20.6,1.4c0.1-0.2,0.3-0.3,0.4-0.3c0,0,0.1,0,0.1,0
				c0.1,0,0.3,0,0.4,0.1l11.2,7.6c0.3,0.2,0.4,0.6,0.2,0.9l-3.5,5.2h-0.8l1.7-2.5c0.3-0.4,0.3-0.9,0.1-1.4C30,10.5,29.9,9.8,30,9.2
				c0.1-0.5-0.1-1-0.6-1.2L23.6,4c-0.4-0.3-0.9-0.3-1.4-0.1c-0.6,0.3-1.2,0.4-1.9,0.4c-0.5-0.1-1,0.1-1.2,0.6l-6.9,10.1h-0.8
				L20.6,1.4L20.6,1.4z M32.6,13.9c0.4,0,0.8,0.3,0.8,0.8V15c-0.1,0-0.2,0-0.3,0h-2.3l0.7-1L32.6,13.9L32.6,13.9L32.6,13.9z
				 M36.1,22.6h-0.6v-5.2l0,0c0-0.8-0.4-1.6-1-2l0,0v-0.7c0-1-0.8-1.9-1.9-1.9h-0.4l1.6-2.4c0.6-0.8,0.3-1.9-0.5-2.5L22.2,0.3
				C21.8,0,21.3-0.1,20.9,0c-0.5,0.1-0.9,0.4-1.1,0.7l-9.6,14.2H7.4L8,8.4c0-0.1,0.1-0.1,0.1-0.2c0.8-0.3,1.6-0.9,2-1.7
				c0-0.1,0.1-0.1,0.2-0.1l4.2,0.4c0.3,0,0.6-0.2,0.6-0.5c0-0.3-0.2-0.6-0.5-0.6l-4.2-0.4c-0.5,0-1,0.2-1.2,0.6
				C8.9,6.5,8.4,7,7.8,7.2C7.3,7.4,7,7.8,6.9,8.3l-0.7,6.7H5.6l1-10.4C6.6,4.2,7,3.9,7.4,4l8.5,0.8c0.3,0,0.6-0.2,0.6-0.5
				c0-0.3-0.2-0.6-0.5-0.6L7.5,2.9c-1-0.1-1.8,0.6-1.9,1.6l-0.8,8.4H3.3c-1,0-1.9,0.8-1.9,1.9v0.5C0.6,15.5,0,16.4,0,17.4l0,0v18.7
				l0,0c0,1.3,1.1,2.4,2.4,2.4h30.6c1.3,0,2.4-1.1,2.4-2.4l0,0v-5.2h0.6c0.7,0,1.2-0.6,1.2-1.2v-5.9C37.3,23.1,36.8,22.6,36.1,22.6
				L36.1,22.6z"/>
		</g>
		<path class="st0" d="M29.3,27.9c-0.6,0-1.1-0.5-1.1-1.1c0-0.6,0.5-1.1,1.1-1.1c0.6,0,1.1,0.5,1.1,1.1
			C30.5,27.4,29.9,27.9,29.3,27.9L29.3,27.9z M29.3,24.5c-1.2,0-2.2,1-2.2,2.2c0,1.2,1,2.2,2.2,2.2c1.2,0,2.2-1,2.2-2.2
			C31.6,25.5,30.6,24.5,29.3,24.5L29.3,24.5z"/>
	</g>
</g>
</svg>
