<?xml version="1.0" encoding="utf-8"?>
<!-- Generator: Adobe Illustrator 22.0.1, SVG Export Plug-In . SVG Version: 6.00 Build 0)  -->
<svg version="1.1" id="圖層_1" xmlns="http://www.w3.org/2000/svg" xmlns:xlink="http://www.w3.org/1999/xlink" x="0px" y="0px"
	 viewBox="0 0 86.2 86.2" style="enable-background:new 0 0 86.2 86.2;" xml:space="preserve">
<style type="text/css">
	.st0{fill:#E4763B;}
	.st1{fill:#FFFFFF;}
	.st2{fill:#7C95BD;}
</style>
<g>
	<circle class="st0" cx="43.1" cy="43.1" r="43.1"/>
	<g id="Wbh3Iw.tif">
		<g>
			<path class="st0" d="M42.4,18.3c-0.7,0.1-2.2,0.1-3.6,0.3c-2.3,0.2-4.6,0.8-6.8,1.6c-4.6,1.6-8.6,4.1-11.7,7.8
				c-2.7,3.1-4.4,6.7-4.8,10.8C15.2,41,15.4,43,15.8,45c0.8,3.6,2.6,6.8,5.2,9.5c4.6,4.9,10.4,7.4,17,8.5c0.8,0.1,1.5,0.3,2.2,0.7
				c0.5,0.3,0.8,0.7,0.8,1.3c0.1,0.9,0,1.8-0.2,2.6c-0.1,0.8-0.3,1.7-0.3,2.5c-0.1,0.8,0.3,1.1,1.1,1.1c0.8,0,1.5-0.4,2.1-0.7
				c1.2-0.6,2.4-1.3,3.5-2c4.9-3,9.7-6.4,14-10.2c2.3-2,4.4-4.2,6.1-6.7c2.5-3.7,3.7-7.7,3.3-12.2c-0.2-2.4-0.9-4.7-1.9-6.9
				c-2-4-5.1-7.1-8.8-9.4C54.8,19.8,49.1,18.4,42.4,18.3z"/>
			<path class="st1" d="M42.4,18.3c6.8,0,12.4,1.5,17.6,4.7c3.8,2.3,6.8,5.4,8.8,9.4c1.1,2.2,1.7,4.4,1.9,6.9
				c0.4,4.5-0.8,8.5-3.3,12.2c-1.7,2.5-3.8,4.7-6.1,6.7c-4.3,3.8-9.1,7.2-14,10.2c-1.1,0.7-2.3,1.3-3.5,2c-0.7,0.4-1.4,0.7-2.1,0.7
				c-0.8,0-1.2-0.3-1.1-1.1c0.1-0.8,0.2-1.7,0.3-2.5c0.1-0.9,0.3-1.7,0.2-2.6c-0.1-0.6-0.3-1-0.8-1.3c-0.7-0.4-1.4-0.6-2.2-0.7
				c-6.6-1-12.4-3.6-17-8.5c-2.6-2.7-4.3-5.8-5.2-9.5c-0.5-2-0.6-4.1-0.4-6.1c0.4-4.1,2.1-7.7,4.8-10.8c3.2-3.7,7.2-6.2,11.7-7.8
				c2.2-0.8,4.4-1.3,6.8-1.6C40.2,18.5,41.6,18.4,42.4,18.3z M42.9,39.9c0.1,0.1,0.2,0.2,0.2,0.3c1,1.3,1.9,2.6,2.9,4
				c0.8,1.1,1.6,2.2,2.5,3.3c0.5,0.6,1.2,0.8,1.8,0.5c0.6-0.3,0.8-0.8,0.8-1.4c0-3.1,0-6.2,0-9.3c0-0.5,0-1,0-1.6
				c0-0.7-0.4-1.2-1-1.4c-0.6-0.2-1.3,0-1.6,0.6c-0.2,0.3-0.3,0.7-0.3,1c0,2.1,0,4.1,0,6.2c0,0.1,0,0.2,0,0.4c0,0-0.1,0-0.1,0
				c-0.2-0.3-0.4-0.6-0.6-0.9c-1.6-2.2-3.3-4.4-4.9-6.7c-0.4-0.6-1-0.8-1.7-0.6c-0.6,0.2-1,0.7-1,1.4c0,0.7,0,1.4,0,2.1
				c0,2.9,0,5.9,0,8.8c0,1,0.9,1.7,1.9,1.4c0.6-0.2,1-0.7,1-1.5c0-2.1,0-4.1,0-6.2C42.9,40.3,42.9,40.2,42.9,39.9z M53.1,41.3
				c0,1.8,0,3.6,0,5.4c0,0.9,0.6,1.5,1.5,1.5c1.8,0,3.5,0,5.3,0c0.2,0,0.3,0,0.5,0c0.7-0.2,1.1-0.8,1-1.5c-0.1-0.7-0.7-1.2-1.4-1.2
				c-1.3,0-2.5,0-3.8,0C56,45.4,56,45.3,56,45c0-0.7,0-1.3,0-2c0-0.3,0.1-0.4,0.4-0.4c1.2,0,2.4,0,3.5,0c0.2,0,0.4,0,0.6-0.1
				c0.7-0.2,1.1-0.9,1-1.5c-0.1-0.7-0.7-1.2-1.4-1.2c-1.3,0-2.5,0-3.8,0c-0.3,0-0.3-0.1-0.3-0.3c0-0.7,0-1.3,0-2
				c0-0.3,0.1-0.3,0.4-0.3c1.2,0,2.4,0,3.6,0c0.3,0,0.5-0.1,0.8-0.1c0.6-0.2,0.9-0.9,0.8-1.5c-0.1-0.7-0.7-1.2-1.5-1.2
				c-1.8,0-3.5,0-5.3,0c-0.9,0-1.5,0.6-1.5,1.5C53.1,37.7,53.1,39.5,53.1,41.3z M25.3,41.3C25.3,41.3,25.3,41.3,25.3,41.3
				c0,1.8,0,3.6,0,5.4c0,0.9,0.6,1.5,1.5,1.5c1.8,0,3.6,0,5.4,0c0.1,0,0.3,0,0.4,0c0.7-0.2,1.1-0.8,1.1-1.5
				c-0.1-0.7-0.7-1.3-1.4-1.3c-1.2,0-2.5,0-3.7,0c-0.3,0-0.4-0.1-0.4-0.4c0-3,0-6.1,0-9.1c0-0.3-0.1-0.6-0.2-0.8
				c-0.3-0.6-1-0.8-1.6-0.6c-0.6,0.2-1,0.7-1,1.3C25.3,37.6,25.3,39.4,25.3,41.3z M37.9,41.2c0-1.8,0-3.6,0-5.4
				c0-0.8-0.5-1.4-1.2-1.5c-0.7-0.1-1.3,0.2-1.6,0.9C35.1,35.5,35,35.8,35,36c0,3.5,0,6.9,0,10.4c0,0.2,0,0.4,0,0.5
				c0.1,0.6,0.6,1.1,1.2,1.2c0.7,0.1,1.3-0.3,1.5-1c0.1-0.2,0.1-0.4,0.1-0.7C37.9,44.8,37.9,43,37.9,41.2z"/>
			<path class="st0" d="M42.9,39.9c0,0.2,0,0.3,0,0.5c0,2.1,0,4.1,0,6.2c0,0.8-0.3,1.3-1,1.5C41,48.4,40,47.7,40,46.7
				c0-2.9,0-5.9,0-8.8c0-0.7,0-1.4,0-2.1c0-0.7,0.4-1.2,1-1.4c0.6-0.2,1.2,0,1.7,0.6c1.6,2.2,3.3,4.4,4.9,6.7
				c0.2,0.3,0.4,0.6,0.6,0.9c0,0,0.1,0,0.1,0c0-0.1,0-0.2,0-0.4c0-2.1,0-4.1,0-6.2c0-0.3,0.1-0.7,0.3-1c0.3-0.5,1-0.7,1.6-0.6
				c0.6,0.2,1,0.7,1,1.4c0,0.5,0,1,0,1.6c0,3.1,0,6.2,0,9.3c0,0.6-0.2,1.1-0.8,1.4c-0.6,0.3-1.4,0.1-1.8-0.5
				c-0.8-1.1-1.6-2.2-2.5-3.3c-1-1.3-1.9-2.6-2.9-4C43.1,40.2,43,40.1,42.9,39.9z"/>
			<path class="st0" d="M53.1,41.3c0-1.8,0-3.6,0-5.4c0-0.9,0.6-1.5,1.5-1.5c1.8,0,3.5,0,5.3,0c0.8,0,1.3,0.5,1.5,1.2
				c0.1,0.6-0.2,1.3-0.8,1.5c-0.2,0.1-0.5,0.1-0.8,0.1c-1.2,0-2.4,0-3.6,0c-0.3,0-0.4,0.1-0.4,0.3c0,0.7,0,1.3,0,2
				c0,0.2,0.1,0.3,0.3,0.3c1.3,0,2.5,0,3.8,0c0.7,0,1.3,0.5,1.4,1.2c0.1,0.7-0.3,1.3-1,1.5c-0.2,0.1-0.4,0.1-0.6,0.1
				c-1.2,0-2.4,0-3.5,0c-0.3,0-0.4,0.1-0.4,0.4c0,0.7,0,1.3,0,2c0,0.3,0.1,0.3,0.3,0.3c1.3,0,2.5,0,3.8,0c0.7,0,1.3,0.5,1.4,1.2
				c0.1,0.7-0.3,1.4-1,1.5c-0.1,0-0.3,0-0.5,0c-1.8,0-3.5,0-5.3,0c-0.9,0-1.5-0.6-1.5-1.5C53.1,44.9,53.1,43.1,53.1,41.3z"/>
			<path class="st0" d="M25.3,41.3c0-1.8,0-3.7,0-5.5c0-0.6,0.4-1.2,1-1.3c0.6-0.2,1.3,0.1,1.6,0.6c0.1,0.2,0.2,0.6,0.2,0.8
				c0,3,0,6.1,0,9.1c0,0.3,0.1,0.4,0.4,0.4c1.2,0,2.5,0,3.7,0c0.7,0,1.3,0.5,1.4,1.3c0.1,0.7-0.4,1.3-1.1,1.5c-0.1,0-0.3,0-0.4,0
				c-1.8,0-3.6,0-5.4,0c-0.9,0-1.5-0.6-1.5-1.5C25.3,44.9,25.3,43.1,25.3,41.3C25.3,41.3,25.3,41.3,25.3,41.3z"/>
			<path class="st0" d="M37.9,41.2c0,1.8,0,3.5,0,5.3c0,0.2,0,0.4-0.1,0.7c-0.2,0.7-0.8,1-1.5,1c-0.6,0-1.1-0.5-1.2-1.2
				c0-0.2,0-0.4,0-0.5c0-3.5,0-6.9,0-10.4c0-0.3,0-0.6,0.1-0.8c0.2-0.6,0.9-1,1.6-0.9c0.7,0.1,1.2,0.7,1.2,1.5
				C37.9,37.7,37.9,39.4,37.9,41.2z"/>
		</g>
	</g>
</g>
</svg>
