<?xml version="1.0" encoding="utf-8"?>
<!-- Generator: Adobe Illustrator 22.0.1, SVG Export Plug-In . SVG Version: 6.00 Build 0)  -->
<svg version="1.1" id="圖層_1" xmlns="http://www.w3.org/2000/svg" xmlns:xlink="http://www.w3.org/1999/xlink" x="0px" y="0px"
	 viewBox="0 0 54.8 54.8" style="enable-background:new 0 0 54.8 54.8;" xml:space="preserve">
<style type="text/css">
	.st0{fill:#F7E4AB;}
	.st1{fill:#DA7926;}
</style>
<g>
	<path class="st0" d="M34,27.4C34,31,31,34,27.4,34c-3.6,0-6.6-2.9-6.6-6.6c0-3.6,2.9-6.6,6.6-6.6C31,20.8,34,23.8,34,27.4L34,27.4z
		 M34,27.4"/>
	<g>
		<path class="st1" d="M27.4,35c-4.2,0-7.6-3.4-7.6-7.6c0-4.2,3.4-7.6,7.6-7.6c4.2,0,7.6,3.4,7.6,7.6C35,31.6,31.6,35,27.4,35
			L27.4,35z M27.4,21.8c-3.1,0-5.6,2.5-5.6,5.6c0,3.1,2.5,5.6,5.6,5.6c3.1,0,5.6-2.5,5.6-5.6C33,24.3,30.5,21.8,27.4,21.8L27.4,21.8
			z M27.4,21.8"/>
		<path class="st1" d="M27.4,15.4c0.6,0,1-0.5,1-1V3.5l2.3,2.3C30.9,5.9,31.1,6,31.4,6c0.3,0,0.5-0.1,0.7-0.3c0.4-0.4,0.4-1,0-1.4
			l-4-4c-0.4-0.4-1-0.4-1.4,0l-4,4c-0.4,0.4-0.4,1,0,1.4c0.4,0.4,1,0.4,1.4,0l2.3-2.3v10.9C26.4,14.9,26.8,15.4,27.4,15.4L27.4,15.4
			z M27.4,15.4"/>
		<path class="st1" d="M22.7,50.5l4,4c0.2,0.2,0.5,0.3,0.7,0.3c0.3,0,0.5-0.1,0.7-0.3l4-4c0.4-0.4,0.4-1,0-1.4c-0.4-0.4-1-0.4-1.4,0
			l-2.3,2.3V40.5c0-0.6-0.5-1-1-1c-0.6,0-1,0.5-1,1v10.9l-2.3-2.3c-0.4-0.4-1-0.4-1.4,0C22.3,49.5,22.3,50.1,22.7,50.5L22.7,50.5z
			 M22.7,50.5"/>
		<path class="st1" d="M4.3,32.1c0.2,0.2,0.5,0.3,0.7,0.3c0.3,0,0.5-0.1,0.7-0.3c0.4-0.4,0.4-1,0-1.4l-2.3-2.3h10.9c0.6,0,1-0.5,1-1
			c0-0.6-0.5-1-1-1H3.5l2.3-2.3c0.4-0.4,0.4-1,0-1.4c-0.4-0.4-1-0.4-1.4,0l-4,4c-0.4,0.4-0.4,1,0,1.4L4.3,32.1z M4.3,32.1"/>
		<path class="st1" d="M39.4,27.4c0,0.6,0.5,1,1,1h10.9l-2.3,2.3c-0.4,0.4-0.4,1,0,1.4c0.2,0.2,0.5,0.3,0.7,0.3
			c0.3,0,0.5-0.1,0.7-0.3l4-4c0.4-0.4,0.4-1,0-1.4l-4-4c-0.4-0.4-1-0.4-1.4,0c-0.4,0.4-0.4,1,0,1.4l2.3,2.3H40.5
			C39.9,26.4,39.4,26.8,39.4,27.4L39.4,27.4z M39.4,27.4"/>
	</g>
	<path class="st1" d="M15.4,8.7c0-0.6-0.5-1-1-1H8.7c-0.6,0-1,0.5-1,1v5.7c0,0.6,0.5,1,1,1c0.6,0,1-0.5,1-1v-3.2l7.7,7.7
		c0.2,0.2,0.5,0.3,0.7,0.3c0.3,0,0.5-0.1,0.7-0.3c0.4-0.4,0.4-1,0-1.4l-7.7-7.7h3.2C15,9.8,15.4,9.3,15.4,8.7L15.4,8.7z M15.4,8.7"
		/>
	<path class="st1" d="M35.9,37.4l7.7,7.7h-3.2c-0.6,0-1,0.5-1,1c0,0.6,0.5,1,1,1h5.7c0.6,0,1-0.5,1-1v-5.7c0-0.6-0.5-1-1-1
		c-0.6,0-1,0.5-1,1v3.2l-7.7-7.7c-0.4-0.4-1-0.4-1.4,0C35.5,36.3,35.5,36.9,35.9,37.4L35.9,37.4z M35.9,37.4"/>
	<path class="st1" d="M8.7,39.4c-0.6,0-1,0.5-1,1v5.7c0,0.6,0.5,1,1,1h5.7c0.6,0,1-0.5,1-1c0-0.6-0.5-1-1-1h-3.2l7.7-7.7
		c0.4-0.4,0.4-1,0-1.4c-0.4-0.4-1-0.4-1.4,0l-7.7,7.7v-3.2C9.8,39.9,9.3,39.4,8.7,39.4L8.7,39.4z M8.7,39.4"/>
	<path class="st1" d="M35.9,18.9c0.2,0.2,0.5,0.3,0.7,0.3c0.3,0,0.5-0.1,0.7-0.3l7.7-7.7v3.2c0,0.6,0.5,1,1,1c0.6,0,1-0.5,1-1V8.7
		c0-0.6-0.5-1-1-1h-5.7c-0.6,0-1,0.5-1,1c0,0.6,0.5,1,1,1h3.2l-7.7,7.7C35.5,17.9,35.5,18.5,35.9,18.9L35.9,18.9z M35.9,18.9"/>
</g>
</svg>
