<?xml version="1.0" encoding="utf-8"?>
<!-- Generator: Adobe Illustrator 22.0.1, SVG Export Plug-In . SVG Version: 6.00 Build 0)  -->
<svg version="1.1" id="圖層_1" xmlns="http://www.w3.org/2000/svg" xmlns:xlink="http://www.w3.org/1999/xlink" x="0px" y="0px"
	 viewBox="0 0 86.2 86.2" style="enable-background:new 0 0 86.2 86.2;" xml:space="preserve">
<style type="text/css">
	.st0{fill:#E4763B;}
	.st1{fill:#FFFFFF;}
	.st2{fill:#7C95BD;}
</style>
<g>
	<circle class="st0" cx="43.1" cy="43.1" r="43.1"/>
	<g id="_x38_MExd8.tif">
		<g>
			<path class="st1" d="M34.5,76.7c0-9.8,0-19.5,0-29.2c-0.1,0-0.3,0-0.4,0c-3,0-6,0-8.9,0c-0.1,0-0.3,0-0.4,0
				c-0.1-0.3-0.1-11.2,0-11.5c3.2,0,6.5,0,9.8,0c0-0.2,0-0.3,0-0.4c0-2.8,0-5.6,0-8.4c0-2.2,0.3-4.3,1.2-6.4
				c1.5-3.9,4.3-6.4,8.3-7.6c1-0.3,2.1-0.5,3.2-0.6c1.5-0.2,3.1-0.1,4.6-0.1c0.2,0,0.4,0,0.6,0c1.1,0.1,2.2,0.1,3.3,0.2
				c0.6,0,1.2,0.1,1.8,0.1c0.2,0,0.4,0.1,0.6,0.1c0,3.4,0,6.8,0,10.3c-0.1,0-0.3,0-0.4,0c-1.9,0-3.8,0-5.6,0c-0.8,0-1.7,0-2.5,0.3
				c-0.4,0.1-0.8,0.3-1.2,0.5c-1,0.5-1.5,1.4-1.8,2.5c-0.2,0.7-0.2,1.4-0.2,2.1c0,2.3,0,4.7,0,7c0,0.1,0,0.2,0,0.3
				c0.1,0,0.3,0,0.4,0c3.5,0,7,0,10.4,0c0.1,0,0.3,0,0.4,0c-0.1,0.4-0.1,0.8-0.1,1.2c-0.1,1.1-0.3,2.1-0.4,3.2
				c-0.1,1.1-0.3,2.1-0.4,3.2c-0.1,1.1-0.3,2.1-0.4,3.2c0,0.2,0,0.4-0.1,0.6c0,0.1-0.1,0.2-0.2,0.2c-0.1,0-0.2,0-0.3,0
				c-2.9,0-5.9,0-8.8,0c-0.1,0-0.3,0-0.5,0c0,0.1,0,0.2,0,0.3c0,0.1,0,0.1,0,0.2c0,9.4,0,18.9,0,28.3c0,0.1,0,0.3,0,0.5"/>
		</g>
	</g>
</g>
</svg>
