<?xml version="1.0" encoding="utf-8"?>
<!-- Generator: Adobe Illustrator 22.0.1, SVG Export Plug-In . SVG Version: 6.00 Build 0)  -->
<svg version="1.1" id="圖層_1" xmlns="http://www.w3.org/2000/svg" xmlns:xlink="http://www.w3.org/1999/xlink" x="0px" y="0px"
	 viewBox="0 0 56.9 41.2" style="enable-background:new 0 0 56.9 41.2;" xml:space="preserve">
<style type="text/css">
	.st0{clip-path:url(#SVGID_2_);fill:#E2EBF7;}
	.st1{clip-path:url(#SVGID_2_);fill:#3A5FA1;}
	.st2{fill:#3A5FA1;}
	.st3{fill:#E2EBF7;}
	.st4{clip-path:url(#SVGID_4_);fill:#E2EBF7;}
	.st5{clip-path:url(#SVGID_4_);fill:#3A5FA1;}
	.st6{fill:#F7E4AB;}
	.st7{fill:#E55927;}
	.st8{fill:#999999;}
	.st9{clip-path:url(#SVGID_6_);fill:#FFFFFF;}
</style>
<g>
	<rect x="2.6" y="11.9" class="st3" width="14.5" height="11.1"/>
	<g>
		<g>
			<path class="st2" d="M39.6,31.7c-0.9,0-1.6-0.7-1.6-1.6l0-25.4c0-0.9,0.7-1.6,1.6-1.6c0.9,0,1.6,0.7,1.6,1.6l0,25.4
				C41.2,31,40.5,31.7,39.6,31.7L39.6,31.7z M19,22.3v-9.7c5.6-0.4,11-2.1,15.8-4.9l0,19.6C30,24.4,24.6,22.7,19,22.3L19,22.3z
				 M19,26.9c0,0.9-0.7,1.6-1.6,1.6h-1.6l0-3.2c0.7,0,1.7,0,3.2,0.1L19,26.9L19,26.9z M11.1,38c-0.9,0-1.6-0.7-1.6-1.6l0-11.1l3.2,0
				l0,11.1C12.7,37.3,12,38,11.1,38L11.1,38z M3.2,20.6l0-6.3c0-0.9,0.7-1.6,1.6-1.6l11.1,0v9.5c-1.1,0-10,0-11.1,0
				C3.9,22.2,3.2,21.5,3.2,20.6L3.2,20.6z M44.4,4.8c0-2.6-2.1-4.8-4.8-4.8c-2.4,0-4.3,1.7-4.7,3.8l-0.1,0.1
				C29.4,7.6,23,9.5,16.4,9.5l-11.6,0C2.1,9.5,0,11.6,0,14.3l0,6.3c0,2.6,2.1,4.8,4.8,4.8h1.6l0,11.1c0,2.6,2.1,4.8,4.8,4.8
				c2.6,0,4.8-2.1,4.8-4.8l0-4.8l1.6,0c2.6,0,4.8-2.1,4.8-4.8l0-1.1c4.5,0.8,8.8,2.5,12.7,5.1L35,31c0.4,2.2,2.4,3.8,4.7,3.8l0,0
				c2.6,0,4.8-2.1,4.8-4.8L44.4,4.8L44.4,4.8z"/>
		</g>
		<path class="st2" d="M11.1,19c0.9,0,1.6-0.7,1.6-1.6c0-0.9-0.7-1.6-1.6-1.6l-3.2,0c-0.9,0-1.6,0.7-1.6,1.6C6.3,18.3,7,19,7.9,19
			H11.1L11.1,19z"/>
		<path class="st2" d="M49.7,12l2.2-2.2c0.6-0.6,0.6-1.6,0-2.2c-0.6-0.6-1.6-0.6-2.2,0l-2.2,2.2c-0.6,0.6-0.6,1.6,0,2.2
			C48.1,12.6,49.1,12.6,49.7,12L49.7,12z"/>
		<path class="st2" d="M51.9,25.4l-2.2-2.2c-0.6-0.6-1.6-0.6-2.2,0c-0.6,0.6-0.6,1.6,0,2.2l2.2,2.2c0.6,0.6,1.6,0.6,2.2,0
			C52.5,27,52.5,26,51.9,25.4L51.9,25.4z"/>
		<path class="st2" d="M50.8,19.2l4.5,0c0.9,0,1.6-0.7,1.6-1.6c0-0.9-0.7-1.6-1.6-1.6l-4.5,0c-0.9,0-1.6,0.7-1.6,1.6
			C49.2,18.5,49.9,19.2,50.8,19.2L50.8,19.2z"/>
	</g>
</g>
</svg>
