<?xml version="1.0" standalone="no"?><!DOCTYPE svg PUBLIC "-//W3C//DTD SVG 1.1//EN" "http://www.w3.org/Graphics/SVG/1.1/DTD/svg11.dtd"><svg t="1533387167076" class="icon" style="" viewBox="0 0 1024 1024" version="1.1" xmlns="http://www.w3.org/2000/svg" p-id="3505" xmlns:xlink="http://www.w3.org/1999/xlink" width="48" height="48"><defs><style type="text/css"></style></defs><path d="M1021.984226 144.785706s44.984644 229.496775-293.526511 568.622288l-7.304032 7.167508-7.099246 7.304032C375.47502 1067.005047 146.524341 1021.952141 146.524341 1021.952141c-14.061968-1.911335-43.482881-10.239297-53.44913-20.34207 0 0-52.08389-42.868523-83.962234-95.703295-32.014868-52.834772 28.396983-132.564764 63.074069-167.310112 70.036791-70.241577 134.476099-83.962235 162.80482-64.371046 12.76499 8.737533 63.483641 63.483641 63.483641 63.483641 9.966249 9.966249 29.693961 18.29421 43.824191 18.430734 0 0 88.535787 0.955668 253.251943-161.507843 162.122201-164.989204 161.234795-253.661515 161.234795-253.661515a73.176842 73.176842 0 0 0-18.430734-43.960715l-63.415379-63.551903c-23.823431-29.898747 15.700255-104.16778 64.234523-163.14613 31.263987-37.953661 56.589181-60.070542 103.894732-69.149385 63.210593-12.08237 176.662003 72.289436 178.914648 143.623204z" p-id="3506" fill="#bfbfbf"></path></svg>