<?xml version="1.0" encoding="utf-8"?>
<!-- Generator: Adobe Illustrator 22.0.1, SVG Export Plug-In . SVG Version: 6.00 Build 0)  -->
<svg version="1.1" id="圖層_1" xmlns="http://www.w3.org/2000/svg" xmlns:xlink="http://www.w3.org/1999/xlink" x="0px" y="0px"
	 viewBox="0 0 37.4 54.7" style="enable-background:new 0 0 37.4 54.7;" xml:space="preserve">
<style type="text/css">
	.st0{fill:#F7E4AB;}
	.st1{fill:#DA7926;}
</style>
<g>
	<g>
		<path class="st0" d="M20.5,17.3c0.3,0.2,0.5,0.4,0.8,0.7c1.4,1,2.9,1.5,4.6,1c1-0.2,2-0.1,2.9,0.4c0.5,0.3,1,0.6,1.6,0.9
			c1.4,0.8,2.6,0.5,3.7-0.7c0.6-0.7,1.2-1.4,1.8-2.1c0.8-1,0.7-1.9-0.3-2.7c-3.7-2.9-7.3-5.7-11-8.6c-1.6-1.2-2.4-2.7-2-4.7
			c0.1-0.5-0.2-0.7-0.8-0.5c-1.3,0.4-2.3,1.1-2.9,2.2C17.9,5,16.6,5.6,15,5.5c-2.5-0.1-4,1.2-5.3,3.1c-1.4,2-2.1,4.3-2.7,6.6
			c-0.6,2.5-0.9,4.9-1,7.5c-0.1,1.9-0.1,3.8-0.1,5.7v3.6c0,0.9,0.7,1.6,1.6,1.6h15.4l6.8,0.1c0.8,0,1.5-0.6,1.5-1.4v-2.4
			c0-1.2-0.6-2.3-1.6-3c-0.1-0.1-1.4-0.9-2.9-2.1c-0.6-0.5-1.2-1.1-1.7-1.7L20.5,17.3z M20.5,17.3"/>
		<path class="st1" d="M2.1,47.5C2.1,47.5,2.1,47.5,2.1,47.5c-0.7,0.3-1.7,0.9-1.8,2.5c0,0.3-0.1,0.7-0.1,1
			c-0.1,0.4-0.1,0.8-0.1,1.2c-0.1,0.7,0.1,1.4,0.5,1.8c0.4,0.5,1,0.7,1.8,0.8h32.2c0.4,0,0.9,0,1.4-0.4c0.6-0.5,0.9-1.2,0.8-2.1
			c-0.1-0.5-0.1-0.9-0.2-1.4c-0.1-0.4-0.1-0.9-0.2-1.3c0,0,0,0,0-0.1c-0.2-1.2-1-1.7-1.6-1.9c-0.7-0.2-1.3-0.8-1.4-1.6
			c-0.1-0.4-0.1-1.4,0.9-2.2c0.8-0.5,1.1-1.3,1-2.2c-0.1-0.7-0.2-1.5-0.3-2.2c-0.2-1.3-1-2-2.3-2H4.7c-2,0-2.6,0.5-2.9,2.5
			c0,0,0,0.1,0,0.1c0,0.1,0,0.2,0,0.2v0c-0.4,1.5-0.1,2.7,1.1,3.8c0.5,0.4,0.7,1.1,0.6,1.7C3.3,46.6,2.8,47.2,2.1,47.5L2.1,47.5z
			 M4.2,42.6c-0.6-0.5-0.7-1-0.5-1.7c0.1-0.3,0.1-0.6,0.1-0.8c0.1-0.4,0.1-0.6,0.1-0.7c0.1,0,0.3,0,0.8,0h27.9c0.1,0,0.2,0,0.2,0
			c0,0,0,0.1,0.1,0.2c0.1,0.7,0.2,1.4,0.3,2.1v0c0,0.2,0,0.3-0.2,0.4c0,0,0,0,0,0c-1.4,1-2,2.6-1.7,4.2c0.3,1.5,1.4,2.8,2.8,3.2
			c0.1,0,0.2,0.1,0.2,0.3c0.1,0.4,0.1,0.9,0.2,1.3c0.1,0.4,0.1,0.9,0.2,1.3c0,0.1,0,0.2,0,0.2l0,0c0,0-0.1,0-0.1,0H2.3
			c-0.2,0-0.2,0-0.3-0.1c0,0,0-0.1,0-0.3v0c0-0.3,0.1-0.7,0.1-1c0.1-0.4,0.1-0.8,0.1-1.2c0-0.3,0.1-0.5,0.6-0.7
			c1.3-0.5,2.3-1.7,2.5-3.1C5.7,44.9,5.2,43.5,4.2,42.6L4.2,42.6z M4.2,42.6"/>
		<path class="st1" d="M12.1,47.1h12.4c0.6,0,1-0.5,1-1c0-0.6-0.5-1-1-1H12.1c-0.6,0-1,0.5-1,1C11.1,46.6,11.6,47.1,12.1,47.1
			L12.1,47.1z M12.1,47.1"/>
		<path class="st1" d="M23.4,1.7c0.1-0.8-0.3-1.2-0.5-1.4c-0.3-0.2-0.8-0.5-1.6-0.2c-1.6,0.5-2.8,1.4-3.5,2.8
			C17.3,4,16.4,4.5,15,4.5C11.8,4.4,10,6.3,8.8,8c-1.6,2.2-2.3,4.7-2.9,6.9c-0.6,2.3-0.9,4.8-1,7.7c-0.1,1.2-0.1,2.3-0.1,3.5
			c0,0.7,0,1.5,0,2.3v3.6c0,1.5,1.2,2.7,2.7,2.7h15.4l6.8,0.1c1.4,0,2.5-1.1,2.5-2.4v-2.4c0-1.6-0.8-3-2.1-3.8c0,0,0,0,0,0
			c0,0-1.8-1.1-3.8-2.9c-0.4-0.4-1.1-0.3-1.4,0.1c-0.4,0.4-0.3,1.1,0.1,1.4c2,1.8,3.8,2.9,4.1,3.1c0.7,0.5,1.2,1.2,1.2,2.1v2.4
			c0,0.3-0.2,0.4-0.4,0.4l-6.8-0.1H7.5c-0.4,0-0.6-0.3-0.6-0.6v-3.6c0-0.8,0-1.5,0-2.3c0-1.1,0-2.2,0.1-3.4c0.1-2.8,0.4-5.1,1-7.3
			c0.5-2.1,1.2-4.3,2.5-6.2c1.4-2,2.7-2.7,4.5-2.6c2.2,0.1,3.8-0.9,4.7-2.7c0.3-0.7,0.9-1.2,1.7-1.5c-0.1,1.9,0.8,3.5,2.5,4.8
			c1.8,1.4,3.7,2.9,5.5,4.3c1.8,1.4,3.7,2.9,5.5,4.3c0.3,0.2,0.5,0.4,0.5,0.6c0,0.1-0.1,0.4-0.3,0.7L33.2,19c-0.8,0.9-1.4,1-2.4,0.4
			c0,0,0,0,0,0c-0.5-0.3-1-0.5-1.5-0.8c0,0,0,0,0,0c-1.1-0.7-2.3-0.9-3.6-0.6c0,0,0,0,0,0c-1.3,0.3-2.5,0.1-3.7-0.9l-0.8-0.6
			c-0.4-0.3-1.1-0.3-1.4,0.2c-0.3,0.4-0.3,1.1,0.2,1.4l0.8,0.7c0,0,0,0,0,0c1.7,1.3,3.5,1.7,5.4,1.2c0.8-0.2,1.5-0.1,2.1,0.3
			c0.5,0.4,1.1,0.6,1.7,0.9c1.8,1,3.5,0.7,4.9-0.9c0,0,0,0,0,0l1.8-2.1c0,0,0,0,0,0c0.6-0.7,0.8-1.5,0.7-2.2
			c-0.1-0.7-0.5-1.3-1.3-1.9c-1.8-1.4-3.7-2.9-5.5-4.3c-1.8-1.4-3.6-2.9-5.5-4.3C23.7,4.5,23.2,3.3,23.4,1.7L23.4,1.7z M23.4,1.7"/>
	</g>
</g>
</svg>
