<?xml version="1.0" encoding="utf-8"?>
<!-- Generator: Adobe Illustrator 22.0.1, SVG Export Plug-In . SVG Version: 6.00 Build 0)  -->
<svg version="1.1" id="圖層_1" xmlns="http://www.w3.org/2000/svg" xmlns:xlink="http://www.w3.org/1999/xlink" x="0px" y="0px"
	 viewBox="0 0 44.8 48" style="enable-background:new 0 0 44.8 48;" xml:space="preserve">
<style type="text/css">
	.st0{fill:#F7E4AB;}
	.st1{fill:#DA7926;}
</style>
<g>
	<rect x="8" y="19" class="st0" width="28" height="22"/>
	<g>
		<path class="st1" d="M44,3.2h-5.6V0.8C38.4,0.4,38,0,37.6,0H32c-0.4,0-0.8,0.4-0.8,0.8v2.4H13.6V0.8c0-0.4-0.4-0.8-0.8-0.8H7.2
			C6.8,0,6.4,0.4,6.4,0.8v2.4H0.8C0.4,3.2,0,3.6,0,4v43.2C0,47.6,0.4,48,0.8,48H44c0.4,0,0.8-0.4,0.8-0.8V4
			C44.8,3.6,44.4,3.2,44,3.2L44,3.2z M32.8,1.6h4v4.8h-4V1.6z M8,1.6h4v4.8H8V1.6z M1.6,4.8h4.8v2.4C6.4,7.6,6.8,8,7.2,8h5.6
			c0.4,0,0.8-0.4,0.8-0.8V4.8h17.6v2.4C31.2,7.6,31.6,8,32,8h5.6c0.4,0,0.8-0.4,0.8-0.8V4.8h4.8V12H1.6V4.8z M1.6,46.4V13.6h41.6
			v32.8H1.6z M1.6,46.4"/>
		<path class="st1" d="M28.8,18.4H7.2v23.2h30.4V18.4H28.8z M23.2,20h5.6v5.6h-5.6V20z M28.8,32.8h-5.6v-5.6h5.6V32.8z M16,27.2h5.6
			v5.6H16V27.2z M16,20h5.6v5.6H16V20z M8.8,20h5.6v5.6H8.8V20z M8.8,27.2h5.6v5.6H8.8V27.2z M14.4,40H8.8v-5.6h5.6V40z M21.6,40H16
			v-5.6h5.6V40z M28.8,40h-5.6v-5.6h5.6V40z M36,40h-5.6v-5.6H36V40z M36,32.8h-5.6v-5.6H36V32.8z M36,20v5.6h-5.6V20H36z M36,20"/>
	</g>
</g>
</svg>
