<?xml version="1.0" encoding="utf-8"?>
<!-- Generator: Adobe Illustrator 22.0.1, SVG Export Plug-In . SVG Version: 6.00 Build 0)  -->
<svg version="1.1" id="圖層_1" xmlns="http://www.w3.org/2000/svg" xmlns:xlink="http://www.w3.org/1999/xlink" x="0px" y="0px"
	 viewBox="0 0 86.2 86.2" style="enable-background:new 0 0 86.2 86.2;" xml:space="preserve">
<style type="text/css">
	.st0{fill:#E4763B;}
	.st1{fill:#FFFFFF;}
	.st2{fill:#7C95BD;}
</style>
<g>
	<circle class="st0" cx="43.1" cy="43.1" r="43.1"/>
	<g>
		<path class="st1" d="M53.9,34.2c-5.2,0.3-9.8,1.9-13.4,5.4c-3.7,3.6-5.4,8-5,13.5c-2-0.3-3.9-0.5-5.8-0.7c-0.6-0.1-1.4,0-2,0.3
			c-1.8,1-3.6,2.2-5.6,3.5c0.4-1.7,0.6-3.2,1.1-4.6c0.3-1.1,0.2-1.6-0.8-2.3c-6.3-4.4-8.9-11-6.9-17.9c1.8-6.3,6.3-10.1,12.4-12.1
			c8.3-2.7,17.7,0.1,22.7,6.7C52.5,28.3,53.6,31,53.9,34.2L53.9,34.2z M29.9,32.1c0-1.2-1-2.4-2.3-2.4c-1.3,0-2.4,1-2.4,2.3
			c0,1.3,1,2.4,2.3,2.4C28.7,34.4,29.8,33.3,29.9,32.1L29.9,32.1z M42.4,29.7c-1.3,0-2.4,1.1-2.4,2.4c0,1.3,1.1,2.3,2.4,2.3
			c1.3,0,2.3-1,2.3-2.4C44.8,30.7,43.7,29.6,42.4,29.7z"/>
		<path class="st1" d="M65.6,66.7c-1.7-0.7-3.2-1.8-4.8-2c-1.6-0.2-3.3,0.8-5,0.9c-5.1,0.5-9.7-0.9-13.5-4.4
			c-7.2-6.7-6.2-16.9,2.2-22.3c7.4-4.8,18.3-3.2,23.5,3.5c4.6,5.9,4,13.7-1.5,18.6c-1.6,1.4-2.2,2.6-1.2,4.5
			C65.5,65.8,65.5,66.3,65.6,66.7L65.6,66.7z M46.8,48.5c1.1,0,1.9-0.8,2-1.9c0-1.1-0.8-2-1.9-2c-1.1,0-2,0.9-2,2
			C44.9,47.7,45.7,48.5,46.8,48.5L46.8,48.5z M58.9,44.6c-1,0-1.9,0.8-1.9,1.9c0,1.1,0.8,2,1.9,2c1.1,0,1.9-0.8,1.9-1.8
			C60.9,45.6,60,44.6,58.9,44.6z"/>
	</g>
</g>
</svg>
